<?xml version="1.0" encoding="UTF-8"?>
<svg width="82px" height="99px" viewBox="0 0 82 99" version="1.1" xmlns="http://www.w3.org/2000/svg" xmlns:xlink="http://www.w3.org/1999/xlink">
    <title>crog</title>
    <g id="Index" stroke="none" stroke-width="1" fill="none" fill-rule="evenodd">
        <g id="home" transform="translate(-1295, -3386)">
            <g id="help-Section" transform="translate(0, 2238)">
                <g id="crog" transform="translate(1295.896, 1148.8574)">
                    <path d="M75.454864,69.1837379 L73.872933,69.9745757 C73.3454097,69.2739368 72.7680599,68.6247855 72.1489323,68.0289104 L73.1223398,66.5537872 L68.1251141,63.2537324 L67.1494068,64.7321774 C66.3509034,64.394123 65.526848,64.1193101 64.6852893,63.9102938 L64.7908195,62.1415769 L58.8146925,61.7815477 L58.7094178,63.5463041 C57.8568717,63.6513232 57.0058587,63.8241832 56.163789,64.0679504 L55.3720569,62.4855083 L50.0183793,65.1618361 L50.8101113,66.7444059 C50.1098558,67.2716737 49.4610878,67.8486403 48.8655959,68.4675123 L47.3900894,67.4930827 L44.0933565,72.4887753 L45.5723125,73.4653769 C45.2348969,74.2637525 44.9604672,75.0876802 44.751962,75.9291112 L42.9833729,75.8225589 L42.626921,81.7989414 L44.3915496,81.9052382 C44.4970798,82.757912 44.6704508,83.6090527 44.914729,84.451378 L43.332798,85.2422157 L46.012192,90.5979376 L47.594123,89.8070998 C48.121774,90.5077386 48.6989962,91.1568899 49.3181237,91.7527651 L48.3447162,93.2278883 L53.341942,96.5278153 L54.3176492,95.0493703 C55.1161526,95.3874247 55.9402081,95.6622376 56.7817667,95.8712539 L56.6762365,97.6399708 L62.6523636,98 L62.7576383,96.2352437 C63.6101843,96.1302245 64.4611973,95.9573645 65.303267,95.7135974 L66.0949991,97.2960394 L71.4486768,94.6197116 L70.6569447,93.0371418 C71.3572002,92.5098741 72.0059682,91.9329075 72.6014601,91.3140354 L74.0769666,92.288465 L77.3736996,87.2927724 L75.8947436,86.3161708 C76.2321592,85.5177952 76.5065888,84.6938675 76.715094,83.8524366 L78.4836832,83.9589889 L78.8401351,77.9826063 L77.0755065,77.8763095 C76.9699763,77.0236357 76.7966052,76.172495 76.5524548,75.3302975 L78.1343858,74.5394598 L75.454864,69.1837379 Z" id="Shape" fill="#E9F5FC" fill-rule="nonzero"></path>
                    <path d="M34.5677861,63.8846322 L31.573079,57.0424165 L28.320679,58.4659244 C27.5720022,57.5395328 26.7175397,56.7230151 25.7827158,56.0274868 L27.0761635,52.7206607 L20.1204964,50 L18.8270487,53.3069538 C17.6683884,53.1835371 16.4867312,53.2037233 15.3081402,53.3763278 L13.8846322,50.1239277 L7.0424165,53.1186348 L8.46592444,56.3710349 C7.53953276,57.1197116 6.72301515,57.9741741 6.02748677,58.908998 L2.7206607,57.6155503 L0,64.5713451 L3.30682606,65.8647928 C3.18353714,67.0234532 3.20359555,68.2051104 3.37620004,69.3837014 L0.123799963,70.8072093 L3.11850703,77.6494251 L6.3709071,76.2259171 C7.11958387,77.1523088 7.97404636,77.9688264 8.90887023,78.6643548 L7.61542252,81.9711809 L14.5712174,84.6918416 L15.8646651,81.3848878 C17.0233254,81.5081767 18.2049827,81.4881183 19.3835736,81.3155138 L20.8070816,84.5679139 L27.6492973,81.5732068 L26.2257894,78.3208067 C27.1521811,77.57213 27.9686987,76.7176675 28.664227,75.7828436 L31.9710531,77.0762913 L34.6917138,70.1206242 L31.3848878,68.8271765 C31.5083044,67.6685162 31.4881183,66.4868589 31.3155138,65.3082679 L34.5677861,63.8846322 Z" id="Shape" fill="#E9F5FC" fill-rule="nonzero"></path>
                    <path d="M80.6112429,22.7546633 L77.9218836,22.7546633 C77.6810549,21.4435846 77.3375068,20.1687899 76.9010768,18.9378171 L79.2284906,17.5940318 L74.6776602,9.71158971 L72.3448805,11.0584413 C71.4887571,10.0561599 70.555083,9.12261362 69.5529294,8.26649024 L70.899781,5.93371053 L63.0173389,1.38275233 L61.6735536,3.71029385 C60.4425808,3.27360832 59.1676583,2.93018799 57.8565797,2.68935937 L57.8565797,0 L48.7545355,0 L48.7545355,2.68935937 C47.4435846,2.93018799 46.1686622,3.27360832 44.9376894,3.71029385 L43.593904,1.38275233 L35.7114619,5.93371053 L37.0583136,8.26649024 C36.0561599,9.12261362 35.1224859,10.0561599 34.2663625,11.0584413 L31.9335828,9.71158971 L27.3827523,17.5940318 L29.7101661,18.9378171 C29.2736083,20.1687899 28.930188,21.4435846 28.6893594,22.7546633 L26,22.7546633 L26,31.8565797 L28.6894871,31.8565797 C28.9303158,33.1676583 29.2738638,34.442453 29.7102938,35.6735536 L27.3828801,37.0173389 L31.9337105,44.8999087 L34.2664902,43.5530571 C35.1224859,44.5553386 36.0561599,45.4888848 37.0584413,46.3450082 L35.7115897,48.6777879 L43.5940318,53.2287461 L44.9378171,50.9012046 C46.1687899,51.3377624 47.4437124,51.6811827 48.7546633,51.9221391 L48.7546633,54.6114984 L57.8565797,54.6114984 L57.8565797,51.9221391 C59.1676583,51.6813105 60.4425808,51.3378901 61.6735536,50.9012046 L63.0173389,53.2287461 L70.899781,48.6777879 L69.5529294,46.3450082 C70.555083,45.4888848 71.4887571,44.5553386 72.3448805,43.5530571 L74.6776602,44.8999087 L79.2284906,37.0174667 L76.9010768,35.6736813 C77.3376346,34.4427085 77.6810549,33.1677861 77.9218836,31.8567074 L80.6112429,31.8567074 L80.6112429,22.7546633 Z" id="Shape" fill="#E9F5FC" fill-rule="nonzero"></path>
                    <circle id="Oval-2" fill="#D3090F" opacity="0.899999976" cx="53" cy="27" r="12"></circle>
                    <circle id="Oval-2-Copy" fill="#D3090F" opacity="0.899999976" cx="61" cy="80" r="8"></circle>
                    <circle id="Oval-2-Copy-2" fill="#D3090F" opacity="0.899999976" cx="17" cy="67" r="6"></circle>
                </g>
            </g>
        </g>
    </g>
</svg>