<?xml version="1.0" encoding="UTF-8"?>
<svg width="512px" height="512px" viewBox="0 0 512 512" version="1.1" xmlns="http://www.w3.org/2000/svg" xmlns:xlink="http://www.w3.org/1999/xlink">
    <title>x / Icons / Favicon</title>
    <g id="x-/-Icons-/-Favicon" stroke="none" fill="none" fill-rule="evenodd">
        <g id="Icon-Grid" stroke-width="1">
            <g id="Dark" opacity="0.35" style="mix-blend-mode: normal;" stroke="#000000">
                <path d="M478,478 L34.0000001,478 L34.0000001,34.0000001 L478,34.0000001 Z" id="Square" stroke-width="4"></path>
                <line x1="351.5" y1="-8.69897636e-17" x2="351.5" y2="512" id="Vertical-3" stroke-width="4"></line>
                <line x1="256" y1="512" x2="256" y2="7.52704423e-17" id="Vertical-2" stroke-width="4"></line>
                <line x1="160.5" y1="-4.9043741e-14" x2="160.5" y2="512" id="Vertical-1" stroke-width="4"></line>
                <line x1="5.301916e-14" y1="351.5" x2="512" y2="351.5" id="Horizontal-2" stroke-width="4"></line>
                <line x1="5.301916e-14" y1="256" x2="512" y2="256" id="Horizontal-2" stroke-width="4"></line>
                <line x1="5.69084778e-14" y1="160.5" x2="512" y2="160.5" id="Horizontal-2" stroke-width="4"></line>
                <line x1="35.0855019" y1="476.914498" x2="476.914498" y2="35.0855019" id="Diagonal-2" stroke-width="4"></line>
                <line x1="35.0855019" y1="35.0855019" x2="476.914498" y2="476.914498" id="Diagonal-1" stroke-width="4"></line>
                <circle id="Ring-3" stroke-width="4" cx="256" cy="256" r="94"></circle>
                <circle id="Ring-2" stroke-width="4" cx="256" cy="256" r="134"></circle>
                <circle id="Ring-1" stroke-width="4" cx="256" cy="256" r="222"></circle>
            </g>
            <g id="Light" opacity="0.2" style="mix-blend-mode: normal;" stroke="#FFFFFF">
                <path d="M478,478 L34.0000001,478 L34.0000001,34.0000001 L478,34.0000001 Z" id="Square" stroke-width="4"></path>
                <line x1="351.5" y1="-8.69897636e-17" x2="351.5" y2="512" id="Vertical-3" stroke-width="4"></line>
                <line x1="256" y1="512" x2="256" y2="7.52704423e-17" id="Vertical-2" stroke-width="4"></line>
                <line x1="160.5" y1="-4.9043741e-14" x2="160.5" y2="512" id="Vertical-1" stroke-width="4"></line>
                <line x1="5.301916e-14" y1="351.5" x2="512" y2="351.5" id="Horizontal-2" stroke-width="4"></line>
                <line x1="5.301916e-14" y1="256" x2="512" y2="256" id="Horizontal-2" stroke-width="4"></line>
                <line x1="5.69084778e-14" y1="160.5" x2="512" y2="160.5" id="Horizontal-2" stroke-width="4"></line>
                <line x1="35.0855019" y1="476.914498" x2="476.914498" y2="35.0855019" id="Diagonal-2" stroke-width="4"></line>
                <line x1="35.0855019" y1="35.0855019" x2="476.914498" y2="476.914498" id="Diagonal-1" stroke-width="4"></line>
                <circle id="Ring-3" stroke-width="4" cx="256" cy="256" r="94"></circle>
                <circle id="Ring-2" stroke-width="4" cx="256" cy="256" r="134"></circle>
                <circle id="Ring-1" stroke-width="4" cx="256" cy="256" r="222"></circle>
            </g>
        </g>
        <rect id="Rectangle-2" fill="#06161A" x="0" y="0" width="512" height="512" rx="9"></rect>
        <g id="icon" stroke-width="1" transform="translate(224.9869, 296.4401) rotate(92) translate(-224.9869, -296.4401)translate(26.9869, 126.4401)" fill="#FFFFFF">
            <path d="M113.372737,78.298441 L176.422608,120.703786 C178.178057,117.826281 180.226081,115.403118 182.859254,113.282851 L119.663096,70.7260579 C118.053934,73.6035635 115.859623,76.1781737 113.519025,78.298441 L113.372737,78.298441 Z" id="Path"></path>
            <path d="M271.989927,149.20201 L211.865805,171.313368 C213.474966,174.039426 214.791553,177.219827 215.376702,180.400228 L275.7934,158.137422 C274.037951,155.411364 272.721364,152.38241 271.84364,149.20201 L271.989927,149.20201 Z" id="Path" transform="translate(243.8296, 164.8011) rotate(53) translate(-243.8296, -164.8011)"></path>
            <path d="M53.2486147,205.665924 C55.4429257,208.089087 57.1983746,210.815145 58.3686738,213.995546 L175.398596,150.084633 C173.935722,147.207127 172.91171,144.026726 172.326561,140.694878 L53.1023273,205.817372 L53.2486147,205.665924 Z" id="Path"></path>
            <path d="M86.6021426,83.5991091 C83.5301071,82.5389755 80.6043591,81.0244989 78.1174732,78.9042316 L37.3032878,196.579065 C40.5216106,197.184855 43.4473587,198.244989 46.2268194,199.910913 L86.6021426,83.5991091 Z" id="Path"></path>
            <path d="M95.3793868,111.919822 C108.545253,111.919822 120.54082,107.073497 129.903214,99.0467706 C134.584411,94.9576837 138.680458,90.1113586 141.752494,84.5077951 C146.579978,76.1781737 149.359438,66.3340757 149.359438,56.0356347 C149.359438,47.5545657 147.457702,39.5278396 144.239379,32.4097996 C141.606206,26.6547884 138.095308,21.3541203 133.852974,16.8106904 C124.051718,6.51224944 110.446989,0 95.2330994,0 C65.3904692,0 41.1067603,25.1403118 41.1067603,56.0356347 C41.1067603,74.0579065 49.4451422,90.1113586 62.1721463,100.258352 C66.9996306,104.195991 72.5585519,107.224944 78.410048,109.193764 C83.6763945,111.011136 89.2353158,111.919822 95.086812,111.919822 L95.3793868,111.919822 Z" id="Path"></path>
            <path d="M48.4211304,195.973274 C45.2028075,194.155902 41.8381973,192.792873 38.1810122,192.187082 C36.279276,191.884187 34.5238271,191.581292 32.4758035,191.581292 C14.4824529,191.581292 0,206.57461 0,225.202673 C0,243.830735 14.4824529,258.824053 32.4758035,258.824053 C50.469154,258.824053 64.9516069,243.830735 64.9516069,225.202673 C64.9516069,220.507795 64.0738825,216.115813 62.4647211,212.178174 C61.0018471,208.694878 58.9538234,205.363029 56.4669376,202.636971 C54.1263391,200.062361 51.4931659,197.790646 48.4211304,195.973274 Z" id="Path"></path>
            <path d="M204.948652,164.775056 C218.260805,162.503341 228.354636,150.538976 228.354636,136.151448 C228.354636,134.03118 228.208349,132.062361 227.769487,130.093541 C227.03805,126.761693 225.86775,123.732739 224.258589,121.006682 C220.162542,114.040089 213.140746,108.890869 204.948652,107.52784 C203.33949,107.224944 201.876616,107.073497 200.267455,107.073497 C198.658293,107.073497 197.049132,107.224944 195.586258,107.52784 C190.758774,108.436526 186.516439,110.405345 182.859254,113.434298 C180.372368,115.554566 178.178057,117.977728 176.422608,120.855234 C173.789435,125.398664 172.180273,130.547884 172.180273,136.302895 C172.180273,137.817372 172.180273,139.331849 172.472848,140.694878 C172.91171,144.026726 173.935722,147.207127 175.544884,150.084633 C179.640931,157.808463 186.955301,163.412027 195.586258,164.926503 C197.195419,165.229399 198.658293,165.380846 200.267455,165.380846 C201.876616,165.380846 203.485778,165.229399 204.948652,164.926503 L204.948652,164.775056 Z" id="Path"></path>
            <path d="M258.706515,178.990669 C256.365916,183.231204 254.903042,188.228977 254.903042,193.529645 C254.903042,196.104255 255.195617,198.527418 255.780767,200.799133 C256.658491,203.979534 257.82879,207.159934 259.730527,209.734545 C264.850586,217.458375 273.335255,222.607596 283.136511,222.607596 C284.160523,222.607596 285.184535,222.607596 286.354834,222.456148 C289.573157,222.153253 292.79148,221.093119 295.57094,219.73009 C304.933334,215.035213 311.36998,205.039667 311.36998,193.529645 C311.36998,177.476193 298.789263,164.451694 283.282799,164.451694 C276.261003,164.451694 269.970645,167.026304 264.996873,171.418286 C262.509987,173.538554 260.461964,176.113164 258.852802,178.990669 L258.706515,178.990669 Z" id="Path"></path>
        </g>
    </g>
</svg>