<?xml version="1.0" encoding="UTF-8"?>
<svg id="Layer_1" data-name="Layer 1" xmlns="http://www.w3.org/2000/svg" viewBox="0 0 29.4 50.4">
  <defs>
    <style>
      .cls-1 {
        fill: #fff;
      }

      .cls-1, .cls-2 {
        stroke-width: 0px;
      }

      .cls-2 {
        fill: #d52a28;
      }
    </style>
  </defs>
  <rect class="cls-2" width="29.4" height="50.4"/>
  <g id="nodes">
    <path class="cls-1" d="m14.85,27.09c-.11,0-.22-.01-.32-.03v6.83c.11-.02.21-.03.32-.03s.22.01.32.03v-6.83c-.11.02-.21.03-.32.03Z"/>
    <path class="cls-1" d="m8.92,31.98l4.31,2.8c.12-.19.26-.35.44-.49l-4.32-2.81c-.11.19-.26.36-.42.5Z"/>
    <path class="cls-1" d="m20.6,33.32l-4.11,1.46c.11.18.2.39.24.6l4.13-1.47c-.12-.18-.21-.38-.27-.59Z"/>
    <path class="cls-1" d="m12.97,15l-4.08,1.58c.11.18.19.39.24.6l4.08-1.58c-.11-.18-.19-.39-.24-.6Z"/>
    <path class="cls-1" d="m14.53,16.51v6.76c.11-.02.21-.03.32-.03s.22.01.32.03v-6.76c-.11.02-.21.03-.32.03s-.22-.01-.32-.03Z"/>
    <path class="cls-1" d="m13.71,26.71c-.18-.13-.33-.29-.45-.47l-4.2,2.91c.15.15.28.34.37.53l4.28-2.97Z"/>
    <path class="cls-1" d="m4.81,40.38c.15.16.27.34.35.55l8-4.22c-.1-.19-.17-.4-.21-.62l-8.15,4.3Z"/>
    <path class="cls-1" d="m16.57,46c.1.19.16.4.19.63l7.89-3.68c-.11-.19-.19-.39-.23-.61l-7.85,3.66Z"/>
    <path class="cls-1" d="m7.09,32.33c-.21-.07-.41-.17-.58-.31l-2.79,7.77c.22.04.42.11.61.22l2.76-7.68Z"/>
    <path class="cls-1" d="m15.18,44.98v-7.29c-.11.02-.21.03-.32.03s-.22-.01-.32-.03v7.29c.11-.02.21-.03.32-.03s.22.01.32.03Z"/>
    <path class="cls-1" d="m15.91,26.78l4.89,5.1c.11-.19.25-.36.42-.5l-4.83-5.04c-.13.17-.29.32-.47.44Z"/>
    <path class="cls-1" d="m25.23,40.38c.18-.12.38-.21.59-.27l-2.52-5.54c-.19.1-.41.16-.63.18l2.55,5.63Z"/>
    <path class="cls-1" d="m13.58,23.73l-4.8-5.02c-.13.17-.29.33-.47.45l4.86,5.08c.11-.19.25-.36.41-.51Z"/>
    <path class="cls-1" d="m4.88,9.91c-.18.12-.38.2-.6.26l2.01,5.71c.19-.1.39-.18.61-.21l-2.03-5.75Z"/>
    <path class="cls-1" d="m13.23,4.09c-.12-.18-.2-.38-.25-.6l-7.58,3.68c.13.18.22.37.28.58l7.54-3.67Z"/>
    <path class="cls-1" d="m24.81,9.5c-.13-.17-.24-.36-.31-.57l-8.14,4.49c.13.17.24.36.31.57l8.14-4.49Z"/>
    <path class="cls-1" d="m14.53,4.96v7.76c.11-.02.21-.03.32-.03s.22.01.32.03v-7.76c-.11.02-.21.03-.32.03s-.22-.01-.32-.03Z"/>
    <path class="cls-1" d="m20.25,18.59l-3.72-3.03c-.11.19-.25.36-.41.5l3.72,3.03c.11-.19.25-.36.41-.5Z"/>
    <path class="cls-1" d="m21.71,18.13c.22.02.44.09.63.18l3.51-8.14c-.22-.05-.42-.14-.6-.26l-3.55,8.21Z"/>
    <path class="cls-1" d="m7.69,34.2c.9,0,1.72-.32,2.36-.85.32-.27.6-.59.81-.96.33-.55.52-1.2.52-1.88,0-.56-.13-1.09-.35-1.56-.18-.38-.42-.73-.71-1.03-.67-.68-1.6-1.11-2.64-1.11-2.04,0-3.7,1.66-3.7,3.7,0,1.19.57,2.25,1.44,2.92.33.26.71.46,1.11.59.36.12.74.18,1.14.18Z"/>
    <path class="cls-1" d="m4.48,39.75c-.22-.12-.45-.21-.7-.25-.13-.02-.25-.04-.39-.04-1.23,0-2.22.99-2.22,2.22s.99,2.22,2.22,2.22,2.22-.99,2.22-2.22c0-.31-.06-.6-.17-.86-.1-.23-.24-.45-.41-.63-.16-.17-.34-.32-.55-.44Z"/>
    <path class="cls-1" d="m15.18,37.69c.91-.15,1.6-.94,1.6-1.89,0-.14-.01-.27-.04-.4-.05-.22-.13-.42-.24-.6-.28-.46-.76-.8-1.32-.89-.11-.02-.21-.03-.32-.03s-.22.01-.32.03c-.33.06-.62.19-.87.39-.17.14-.32.3-.44.49-.18.3-.29.64-.29,1.02,0,.1,0,.2.02.29.03.22.1.43.21.62.28.51.78.88,1.37.98.11.02.21.03.32.03s.22-.01.32-.03Z"/>
    <path class="cls-1" d="m13.55,26.92c.27.2.59.34.93.4.12.02.24.03.37.03s.25-.01.37-.03c.3-.05.58-.16.83-.32.21-.14.39-.31.54-.5.28-.37.45-.83.45-1.33,0-1.08-.79-1.98-1.82-2.15-.12-.02-.24-.03-.37-.03s-.25.01-.37.03c-.41.07-.78.25-1.07.51-.19.16-.35.36-.47.58-.17.31-.28.68-.28,1.06,0,.45.14.87.37,1.21.14.21.32.39.52.54Z"/>
    <path class="cls-1" d="m20.8,31.88c-.16.28-.26.61-.26.96,0,.17.02.33.06.48.06.21.14.42.27.59.35.51.93.85,1.6.85.07,0,.14,0,.22-.01.22-.02.44-.09.63-.18.64-.31,1.08-.97,1.08-1.73,0-1.06-.86-1.92-1.92-1.92-.48,0-.91.17-1.25.46-.17.14-.31.31-.42.5Z"/>
    <path class="cls-1" d="m26.31,40.05c-.17,0-.33.02-.49.06-.21.06-.41.15-.59.27-.51.35-.84.93-.84,1.59,0,.12.01.24.04.36.04.22.12.42.23.61.33.57.95.95,1.66.95,1.06,0,1.92-.86,1.92-1.92s-.86-1.92-1.92-1.92Z"/>
    <path class="cls-1" d="m15.26,44.52c-.13-.02-.27-.04-.4-.04s-.27.01-.4.04c-1.13.19-1.99,1.17-1.99,2.35,0,1.32,1.07,2.39,2.39,2.39s2.39-1.07,2.39-2.39c0-.1,0-.2-.02-.3-.04-.28-.12-.54-.24-.78-.34-.66-.97-1.14-1.73-1.27Z"/>
    <path class="cls-1" d="m21.52,18.12c-.49,0-.93.18-1.27.48-.16.14-.3.31-.41.5-.16.28-.25.6-.25.94,0,1.06.86,1.92,1.92,1.92s1.92-.86,1.92-1.92c0-.77-.45-1.43-1.1-1.74-.19-.09-.41-.16-.63-.18-.06,0-.13,0-.2,0Z"/>
    <path class="cls-1" d="m6.27,8.3c0-.24-.04-.46-.1-.68-.08-.27-.2-.52-.36-.74-.44-.62-1.16-1.02-1.98-1.02-1.35,0-2.44,1.09-2.44,2.44s1.09,2.44,2.44,2.44c.2,0,.38-.03.57-.07.27-.07.53-.18.76-.32.67-.43,1.11-1.19,1.11-2.04Z"/>
    <path class="cls-1" d="m8.78,18.71c.24-.32.38-.72.38-1.14,0-.13-.01-.26-.04-.38-.04-.22-.13-.42-.24-.6-.34-.56-.95-.94-1.65-.94-.11,0-.22.01-.32.03-.22.04-.43.11-.61.21-.59.33-.99.96-.99,1.68,0,1.06.86,1.92,1.92,1.92.4,0,.77-.12,1.08-.33.18-.12.34-.28.47-.45Z"/>
    <path class="cls-1" d="m25.26,9.91c.18.12.38.2.6.26.15.04.3.06.45.06,1.06,0,1.92-.86,1.92-1.92s-.86-1.92-1.92-1.92-1.92.86-1.92,1.92c0,.22.04.43.11.63.07.21.18.4.31.57.13.16.28.3.45.41Z"/>
    <path class="cls-1" d="m14.29,11.34c-1.57.27-2.77,1.63-2.77,3.28,0,.23.02.45.07.66.08.38.22.73.41,1.05.49.82,1.32,1.41,2.3,1.58.18.03.37.05.56.05s.38-.02.56-.05c.62-.11,1.18-.38,1.63-.77.28-.25.52-.54.71-.87.27-.48.43-1.04.43-1.64,0-.38-.07-.75-.19-1.09-.13-.36-.31-.69-.54-.98-.5-.62-1.22-1.06-2.04-1.2-.18-.03-.37-.05-.56-.05s-.38.02-.56.05Z"/>
    <path class="cls-1" d="m14.53,4.96c.11.02.21.03.32.03s.22-.01.32-.03c.91-.15,1.6-.94,1.6-1.89,0-1.06-.86-1.92-1.92-1.92s-1.92.86-1.92,1.92c0,.15.02.29.05.43.05.22.13.42.25.6.29.45.75.77,1.3.87Z"/>
  </g>
</svg>