<?xml version="1.0" encoding="UTF-8"?>
<svg width="1616px" height="125px" viewBox="0 0 1616 125" version="1.1" xmlns="http://www.w3.org/2000/svg" xmlns:xlink="http://www.w3.org/1999/xlink">
    <title>logo</title>
    <g id="Symbols" stroke="none" stroke-width="1" fill="none" fill-rule="evenodd">
        <g id="Footer" transform="translate(-171, -613)" fill="#202C2D">
            <g id="logo" transform="translate(171, 613)">
                <polygon id="Path" points="209.97934 0 209.97934 125 174.911661 125 126.841077 68.2043651 126.841077 125 85.2719449 125 85.2719449 0 120.339624 0 168.410209 56.7956349 168.410209 0"></polygon>
                <polygon id="Path" points="258.049925 32.6884921 220.999177 32.6884921 220.999177 0 337.749196 0 337.749196 32.6884921 300.698448 32.6884921 300.698448 125 258.049925 125"></polygon>
                <polygon id="Path" points="451.461857 93.2043651 451.461857 125 348.794135 125 348.794135 0 451.637572 0 451.637572 31.7956349 390.739798 31.7956349 390.739798 46.4285714 444.232443 46.4285714 444.232443 76.7857143 390.739798 76.7857143 390.739798 93.2043651 451.48696 93.2043651"></polygon>
                <polygon id="Path" points="462.632307 0 505.28083 0 505.28083 92.3115079 562.388182 92.3115079 562.388182 125 462.632307 125"></polygon>
                <polygon id="Path" points="573.483325 0 616.131848 0 616.131848 92.3115079 673.2392 92.3115079 673.2392 125 573.483325 125 573.483325 0"></polygon>
                <polygon id="Path" points="684.284139 0 726.932662 0 726.932662 125 684.284139 125"></polygon>
                <polygon id="Path" points="952.751448 0 912.261708 125 866.525623 125 846.092486 58.2093254 824.579959 125 778.843873 125 738.404337 0 782.333069 0 804.372742 71.0813492 827.692623 0 866.902154 0 888.941827 71.9742063 912.261708 0"></polygon>
                <polygon id="Path" points="1066.81554 93.2043651 1066.81554 125 964.147817 125 964.147817 0 1066.99125 0 1066.99125 31.7956349 1006.09348 31.7956349 1006.09348 46.4285714 1059.58613 46.4285714 1059.58613 76.7857143 1006.09348 76.7857143 1006.09348 93.2043651 1066.84064 93.2043651"></polygon>
                <path d="M1197.07051,71.6021825 C1201.16215,76.8353175 1203.22053,83.1597222 1203.22053,90.5257937 C1203.22053,101.488095 1198.62684,109.970238 1189.48966,115.972222 C1180.35249,121.974206 1167.07346,125 1149.72788,125 L1078.51313,125 L1078.51313,0 L1146.11318,0 C1162.98181,0 1175.70859,2.97619048 1184.34373,8.92857143 C1192.95376,14.8809524 1197.27132,22.7926587 1197.27132,32.6884921 C1197.27132,38.5168651 1195.7903,43.75 1192.85335,48.4126984 C1189.8913,53.0505952 1185.52353,56.7956349 1179.75003,59.672619 C1187.23047,62.4007937 1193.00396,66.3938492 1197.09561,71.6269841 L1197.07051,71.6021825 Z M1120.4337,29.4642857 L1120.4337,48.0406746 L1140.31458,48.0406746 C1149.60237,48.0406746 1154.22117,44.9404762 1154.22117,38.764881 C1154.22117,32.5892857 1149.57727,29.4890873 1140.31458,29.4890873 L1120.4337,29.4890873 L1120.4337,29.4642857 Z M1160.19547,85.7142857 C1160.19547,79.1666667 1155.50137,75.8928571 1146.08807,75.8928571 L1120.4337,75.8928571 L1120.4337,95.5357143 L1146.08807,95.5357143 C1155.47627,95.5357143 1160.19547,92.2619048 1160.19547,85.7142857 Z" id="Shape" fill-rule="nonzero"></path>
                <polygon id="Path" points="1215.72139 0 1258.36991 0 1258.36991 92.3115079 1315.47727 92.3115079 1315.47727 125 1215.72139 125 1215.72139 0"></polygon>
                <path d="M1426.80523,103.224206 L1378.73464,103.224206 L1370.25012,125 L1326.87363,125 L1382.17363,0 L1424.0942,0 L1479.39419,125 L1435.28975,125 L1426.80523,103.224206 Z M1415.05743,72.8670635 L1402.75738,41.4434524 L1390.45734,72.8670635 L1415.03233,72.8670635 L1415.05743,72.8670635 Z" id="Shape" fill-rule="nonzero"></path>
                <path d="M1609.84998,71.6021825 C1613.94163,76.8353175 1616,83.1597222 1616,90.5257937 C1616,101.488095 1611.40631,109.970238 1602.26913,115.972222 C1593.13196,121.974206 1579.85293,125 1562.50736,125 L1491.2926,125 L1491.2926,0 L1558.89265,0 C1575.76128,0 1588.48806,2.97619048 1597.1232,8.92857143 C1605.73323,14.8809524 1610.05079,22.7926587 1610.05079,32.6884921 C1610.05079,38.5168651 1608.56977,43.75 1605.63282,48.4126984 C1602.67077,53.0505952 1598.303,56.7956349 1592.52951,59.672619 C1600.00994,62.4007937 1605.78343,66.3938492 1609.87508,71.6269841 L1609.84998,71.6021825 Z M1533.21317,29.4642857 L1533.21317,48.0406746 L1553.09406,48.0406746 C1562.38184,48.0406746 1567.00064,44.9404762 1567.00064,38.764881 C1567.00064,32.5892857 1562.35674,29.4890873 1553.09406,29.4890873 L1533.21317,29.4890873 L1533.21317,29.4642857 Z M1572.97494,85.7142857 C1572.97494,79.1666667 1568.28085,75.8928571 1558.86755,75.8928571 L1533.21317,75.8928571 L1533.21317,95.5357143 L1558.86755,95.5357143 C1568.25574,95.5357143 1572.97494,92.2619048 1572.97494,85.7142857 Z" id="Shape" fill-rule="nonzero"></path>
                <rect id="Rectangle" x="0" y="0" width="73.8002703" height="125"></rect>
            </g>
        </g>
    </g>
</svg>