<?xml version="1.0" encoding="UTF-8"?>
<svg id="Layer_1" data-name="Layer 1" xmlns="http://www.w3.org/2000/svg" viewBox="0 0 643.77 50.4">
  <defs>
    <style>
      .cls-1 {
        fill: #092126;
      }

      .cls-1, .cls-2, .cls-3 {
        stroke-width: 0px;
      }

      .cls-2 {
        fill: #fff;
      }

      .cls-3 {
        fill: #d52a28;
      }
    </style>
  </defs>
  <rect class="cls-3" width="29.4" height="50.4"/>
  <path class="cls-2" d="m14.87,27.18c-.11,0-.22-.01-.32-.03v6.83c.11-.02.21-.03.32-.03s.22.01.32.03v-6.83c-.11.02-.21.03-.32.03Z"/>
  <path class="cls-2" d="m8.94,32.06l4.31,2.8c.12-.19.26-.35.44-.49l-4.32-2.81c-.11.19-.26.36-.42.5Z"/>
  <path class="cls-2" d="m20.62,33.41l-4.11,1.46c.11.18.2.39.24.6l4.13-1.47c-.12-.18-.21-.38-.27-.59Z"/>
  <path class="cls-2" d="m12.99,15.08l-4.08,1.58c.11.18.19.39.24.6l4.08-1.58c-.11-.18-.19-.39-.24-.6Z"/>
  <path class="cls-2" d="m14.55,16.6v6.76c.11-.02.21-.03.32-.03s.22.01.32.03v-6.76c-.11.02-.21.03-.32.03s-.22-.01-.32-.03Z"/>
  <path class="cls-2" d="m13.73,26.79c-.18-.13-.33-.29-.45-.47l-4.2,2.91c.15.15.28.34.37.53l4.28-2.97Z"/>
  <path class="cls-2" d="m4.82,40.46c.15.16.27.34.35.55l8-4.22c-.1-.19-.17-.4-.21-.62l-8.15,4.3Z"/>
  <path class="cls-2" d="m16.59,46.08c.1.19.16.4.19.63l7.89-3.68c-.11-.19-.19-.39-.23-.61l-7.85,3.66Z"/>
  <path class="cls-2" d="m7.11,32.41c-.21-.07-.41-.17-.58-.31l-2.79,7.77c.22.04.42.11.61.22l2.76-7.68Z"/>
  <path class="cls-2" d="m15.2,45.06v-7.29c-.11.02-.21.03-.32.03s-.22-.01-.32-.03v7.29c.11-.02.21-.03.32-.03s.22.01.32.03Z"/>
  <path class="cls-2" d="m15.93,26.86l4.89,5.1c.11-.19.25-.36.42-.5l-4.83-5.04c-.13.17-.29.32-.47.44Z"/>
  <path class="cls-2" d="m25.25,40.46c.18-.12.38-.21.59-.27l-2.52-5.54c-.19.1-.41.16-.63.18l2.55,5.63Z"/>
  <path class="cls-2" d="m13.6,23.81l-4.8-5.02c-.13.17-.29.33-.47.45l4.86,5.08c.11-.19.25-.36.41-.51Z"/>
  <path class="cls-2" d="m4.9,9.99c-.18.12-.38.2-.6.26l2.01,5.71c.19-.1.39-.18.61-.21l-2.03-5.75Z"/>
  <path class="cls-2" d="m13.25,4.18c-.12-.18-.2-.38-.25-.6l-7.58,3.68c.13.18.22.37.28.58l7.54-3.67Z"/>
  <path class="cls-2" d="m24.83,9.58c-.13-.17-.24-.36-.31-.57l-8.14,4.49c.13.17.24.36.31.57l8.14-4.49Z"/>
  <path class="cls-2" d="m14.55,5.04v7.76c.11-.02.21-.03.32-.03s.22.01.32.03v-7.76c-.11.02-.21.03-.32.03s-.22-.01-.32-.03Z"/>
  <path class="cls-2" d="m20.27,18.67l-3.72-3.03c-.11.19-.25.36-.41.5l3.72,3.03c.11-.19.25-.36.41-.5Z"/>
  <path class="cls-2" d="m21.73,18.21c.22.02.44.09.63.18l3.51-8.14c-.22-.05-.42-.14-.6-.26l-3.55,8.21Z"/>
  <path class="cls-2" d="m7.7,34.28c.9,0,1.72-.32,2.36-.85.32-.27.6-.59.81-.96.33-.55.52-1.2.52-1.88,0-.56-.13-1.09-.35-1.56-.18-.38-.42-.73-.71-1.03-.67-.68-1.6-1.11-2.64-1.11-2.04,0-3.7,1.66-3.7,3.7,0,1.19.57,2.25,1.44,2.92.33.26.71.46,1.11.59.36.12.74.18,1.14.18Z"/>
  <path class="cls-2" d="m4.5,39.83c-.22-.12-.45-.21-.7-.25-.13-.02-.25-.04-.39-.04-1.23,0-2.22.99-2.22,2.22s.99,2.22,2.22,2.22,2.22-.99,2.22-2.22c0-.31-.06-.6-.17-.86-.1-.23-.24-.45-.41-.63-.16-.17-.34-.32-.55-.44Z"/>
  <path class="cls-2" d="m15.2,37.77c.91-.15,1.6-.94,1.6-1.89,0-.14-.01-.27-.04-.4-.05-.22-.13-.42-.24-.6-.28-.46-.76-.8-1.32-.89-.11-.02-.21-.03-.32-.03s-.22.01-.32.03c-.33.06-.62.19-.87.39-.17.14-.32.3-.44.49-.18.3-.29.64-.29,1.02,0,.1,0,.2.02.29.03.22.1.43.21.62.28.51.78.88,1.37.98.11.02.21.03.32.03s.22-.01.32-.03Z"/>
  <path class="cls-2" d="m13.57,27c.27.2.59.34.93.4.12.02.24.03.37.03s.25-.01.37-.03c.3-.05.58-.16.83-.32.21-.14.39-.31.54-.5.28-.37.45-.83.45-1.33,0-1.08-.79-1.98-1.82-2.15-.12-.02-.24-.03-.37-.03s-.25.01-.37.03c-.41.07-.78.25-1.07.51-.19.16-.35.36-.47.58-.17.31-.28.68-.28,1.06,0,.45.14.87.37,1.21.14.21.32.39.52.54Z"/>
  <path class="cls-2" d="m20.82,31.96c-.16.28-.26.61-.26.96,0,.17.02.33.06.48.06.21.14.42.27.59.35.51.93.85,1.6.85.07,0,.14,0,.22-.01.22-.02.44-.09.63-.18.64-.31,1.08-.97,1.08-1.73,0-1.06-.86-1.92-1.92-1.92-.48,0-.91.17-1.25.46-.17.14-.31.31-.42.5Z"/>
  <path class="cls-2" d="m26.33,40.13c-.17,0-.33.02-.49.06-.21.06-.41.15-.59.27-.51.35-.84.93-.84,1.59,0,.12.01.24.04.36.04.22.12.42.23.61.33.57.95.95,1.66.95,1.06,0,1.92-.86,1.92-1.92s-.86-1.92-1.92-1.92Z"/>
  <path class="cls-2" d="m15.28,44.6c-.13-.02-.27-.04-.4-.04s-.27.01-.4.04c-1.13.19-1.99,1.17-1.99,2.35,0,1.32,1.07,2.39,2.39,2.39s2.39-1.07,2.39-2.39c0-.1,0-.2-.02-.3-.04-.28-.12-.54-.24-.78-.34-.66-.97-1.14-1.73-1.27Z"/>
  <path class="cls-2" d="m21.54,18.2c-.49,0-.93.18-1.27.48-.16.14-.3.31-.41.5-.16.28-.25.6-.25.94,0,1.06.86,1.92,1.92,1.92s1.92-.86,1.92-1.92c0-.77-.45-1.43-1.1-1.74-.19-.09-.41-.16-.63-.18-.06,0-.13,0-.2,0Z"/>
  <path class="cls-2" d="m6.29,8.38c0-.24-.04-.46-.1-.68-.08-.27-.2-.52-.36-.74-.44-.62-1.16-1.02-1.98-1.02-1.35,0-2.44,1.09-2.44,2.44s1.09,2.44,2.44,2.44c.2,0,.38-.03.57-.07.27-.07.53-.18.76-.32.67-.43,1.11-1.19,1.11-2.04Z"/>
  <path class="cls-2" d="m8.8,18.79c.24-.32.38-.72.38-1.14,0-.13-.01-.26-.04-.38-.04-.22-.13-.42-.24-.6-.34-.56-.95-.94-1.65-.94-.11,0-.22.01-.32.03-.22.04-.43.11-.61.21-.59.33-.99.96-.99,1.68,0,1.06.86,1.92,1.92,1.92.4,0,.77-.12,1.08-.33.18-.12.34-.28.47-.45Z"/>
  <path class="cls-2" d="m25.28,9.99c.18.12.38.2.6.26.15.04.3.06.45.06,1.06,0,1.92-.86,1.92-1.92s-.86-1.92-1.92-1.92-1.92.86-1.92,1.92c0,.22.04.43.11.63.07.21.18.4.31.57.13.16.28.3.45.41Z"/>
  <path class="cls-2" d="m14.31,11.42c-1.57.27-2.77,1.63-2.77,3.28,0,.23.02.45.07.66.08.38.22.73.41,1.05.49.82,1.32,1.41,2.3,1.58.18.03.37.05.56.05s.38-.02.56-.05c.62-.11,1.18-.38,1.63-.77.28-.25.52-.54.71-.87.27-.48.43-1.04.43-1.64,0-.38-.07-.75-.19-1.09-.13-.36-.31-.69-.54-.98-.5-.62-1.22-1.06-2.04-1.2-.18-.03-.37-.05-.56-.05s-.38.02-.56.05Z"/>
  <path class="cls-2" d="m14.55,5.04c.11.02.21.03.32.03s.22-.01.32-.03c.91-.15,1.6-.94,1.6-1.89,0-1.06-.86-1.92-1.92-1.92s-1.92.86-1.92,1.92c0,.15.02.29.05.43.05.22.13.42.25.6.29.45.75.77,1.3.87Z"/>
  <path class="cls-1" d="m83.65,0v50.4h-13.97l-19.15-22.9v22.9h-16.56V0h13.97l19.15,22.9V0h16.56Z"/>
  <path class="cls-1" d="m102.8,13.18h-14.76V0h46.51v13.18h-14.76v37.22h-16.99V13.18Z"/>
  <path class="cls-1" d="m179.85,37.58v12.82h-40.9V0h40.97v12.82h-24.26v5.9h21.31v12.24h-21.31v6.62h24.2Z"/>
  <path class="cls-1" d="m184.3,0h16.99v37.22h22.75v13.18h-39.74V0Z"/>
  <path class="cls-1" d="m228.46,0h16.99v37.22h22.75v13.18h-39.74V0Z"/>
  <path class="cls-1" d="m272.6,0h16.99v50.4h-16.99V0Z"/>
  <path class="cls-1" d="m379.55,0l-16.13,50.4h-18.22l-8.14-26.93-8.57,26.93h-18.22L294.16,0h17.5l8.78,28.66,9.29-28.66h15.62l8.78,29.02,9.29-29.02h16.13Z"/>
  <path class="cls-1" d="m424.99,37.58v12.82h-40.9V0h40.97v12.82h-24.26v5.9h21.31v12.24h-21.31v6.62h24.2Z"/>
  <path class="cls-1" d="m476.88,28.87c1.63,2.11,2.45,4.66,2.45,7.63,0,4.42-1.83,7.84-5.47,10.26s-8.93,3.64-15.84,3.64h-28.37V0h26.93c6.72,0,11.79,1.2,15.23,3.6,3.43,2.4,5.15,5.59,5.15,9.58,0,2.35-.59,4.46-1.76,6.34-1.18,1.87-2.92,3.38-5.22,4.54,2.98,1.1,5.28,2.71,6.91,4.82Zm-30.53-16.99v7.49h7.92c3.7,0,5.54-1.25,5.54-3.74s-1.85-3.74-5.54-3.74h-7.92Zm15.84,22.68c0-2.64-1.87-3.96-5.62-3.96h-10.22v7.92h10.22c3.74,0,5.62-1.32,5.62-3.96Z"/>
  <path class="cls-1" d="m484.31,0h16.99v37.22h22.75v13.18h-39.74V0Z"/>
  <path class="cls-1" d="m568.4,41.62h-19.15l-3.38,8.78h-17.28L550.62,0h16.7l22.03,50.4h-17.57l-3.38-8.78Zm-4.68-12.24l-4.9-12.67-4.9,12.67h9.79Z"/>
  <path class="cls-1" d="m641.32,28.87c1.63,2.11,2.45,4.66,2.45,7.63,0,4.42-1.83,7.84-5.47,10.26s-8.93,3.64-15.84,3.64h-28.37V0h26.93c6.72,0,11.79,1.2,15.23,3.6,3.43,2.4,5.15,5.59,5.15,9.58,0,2.35-.59,4.46-1.76,6.34-1.18,1.87-2.92,3.38-5.22,4.54,2.98,1.1,5.28,2.71,6.91,4.82Zm-30.53-16.99v7.49h7.92c3.7,0,5.54-1.25,5.54-3.74s-1.85-3.74-5.54-3.74h-7.92Zm15.84,22.68c0-2.64-1.87-3.96-5.62-3.96h-10.22v7.92h10.22c3.74,0,5.62-1.32,5.62-3.96Z"/>
</svg>