<?xml version="1.0" encoding="UTF-8"?>
<svg id="Layer_1" data-name="Layer 1" xmlns="http://www.w3.org/2000/svg" viewBox="0 0 178.71 27.91">
  <defs>
    <style>
      .cls-1 {
        fill: #666;
      }

      .cls-1, .cls-2, .cls-3, .cls-4 {
        stroke-width: 0px;
      }

      .cls-2 {
        fill: #6e8271;
      }

      .cls-3 {
        fill: #f7f7f7;
      }

      .cls-4 {
        fill: #545454;
      }
    </style>
  </defs>
  <g>
    <rect class="cls-2" width="27.91" height="27.91" rx="2.6" ry="2.6"/>
    <g>
      <path class="cls-3" d="m21.08,8.7c-.1-.31-.28-.69-.52-1.08-.27-.44-.61-.88-.99-1.28-.66-.71-1.76-1.66-3.24-2.1-1-.3-2.03-.33-3.08-.09-1.19.27-2.39.9-3.58,1.87-.74.6-1.35,1.28-1.83,2.03-.45.7-.78,1.47-.98,2.28-.37,1.47-.33,3.09.12,4.69.36,1.3.99,2.55,1.78,3.58l-1.94,5.14.47.18,1.84-4.88s.04.04.05.06c.5.55,1.03,1,1.58,1.34.58.35,1.16.57,1.74.65,1.02.14,1.96.07,2.78-.21.66-.22,1.25-.58,1.75-1.07.48-.47.78-.96.95-1.3l.29.44c.17.27.53.35.81.2l.06-.04.41-.76.54.36.28-.42-.57-.38c-.11-.07-.24-.1-.37-.06-.13.03-.24.12-.3.23l-.34.65s-.07-.02-.09-.05l-.84-1.27c.31-.23.64-.52.95-.85.42-.45.83-1,1.18-1.57.38-.62.69-1.27.92-1.93.25-.73.4-1.45.44-2.15.05-.78-.04-1.52-.26-2.22Zm-3.4,9.23s-.26.81-1.01,1.54c-1.01.99-2.4,1.37-4.1,1.14-1-.14-2.07-.79-3.01-1.83-.08-.09-.15-.17-.22-.26l2.67-7.06c-.04.34-.07.69-.1,1.06-.08,1.08-.09,2.04-.03,2.86.09,1.04.3,1.85.63,2.42.08.14.22.24.38.28.28.07.57-.01.86-.24.23-.18.46-.45.7-.83.25-.39.5-.89.77-1.49.02.6.1,1.16.25,1.67.15.54.49.73.74.79.08.02.17.03.26.03.29,0,.63-.1.99-.31.13-.07.26-.16.39-.25l-.16.5Zm.75-1.7c-.42.44-.84.8-1.23,1.01-.36.2-.67.28-.89.23-.07-.02-.27-.07-.38-.44-.28-.98-.27-2.05-.16-2.98.58-1.62,1-3.2,1.06-3.44.03-.08.04-.17.03-.24-.02-.24-.18-.29-.23-.3-.06-.01-.18-.01-.29.12-.04.04-.07.1-.11.19-.08.17-.48,1.15-.76,2.47-.08.37-.14.74-.18,1.09-.04.1-.07.2-.11.3-.4,1.07-.79,1.9-1.16,2.48-.39.62-.76.92-1.03.86-.03,0-.05-.02-.06-.05-.53-.9-.72-2.62-.53-4.98.14-1.8.45-3.35.45-3.37l-.48-.14-3.4,9c-.67-.93-1.19-2.02-1.51-3.16-.93-3.33-.01-6.42,2.52-8.48,1.57-1.28,3.13-1.92,4.64-1.92.53,0,1.05.08,1.56.23,1.37.41,2.4,1.3,3.02,1.96.8.86,1.26,1.71,1.4,2.17.82,2.61-.5,5.59-2.17,7.38Z"/>
      <path class="cls-3" d="m20.02,19.74s-.09-.03-.14-.02c-.07.02-.13.04-.2.05-.04,0-.08,0-.11,0-.05,0-.09.02-.12.05-.02.02-.03.03-.04.06-.01.02-.02.04-.02.07,0,.05.02.09.05.12.03.03.08.05.12.05.14,0,.28-.03.41-.07.04-.01.08-.04.1-.08.01-.02.02-.04.02-.07,0-.02,0-.05,0-.07-.01-.04-.04-.08-.08-.1Z"/>
      <path class="cls-3" d="m21.09,18.95c-.03.06-.07.12-.11.17,0,0,0,0-.01.01,0,.01-.02.02-.03.03-.02.02-.03.03-.05.04-.02.01-.04.02-.07.03,0,0,0,0-.01,0-.03,0-.05.02-.07.05-.02.03-.03.08-.03.12,0,.09.05.18.1.17.17-.02.31-.18.42-.39.02-.03.03-.07.03-.12,0-.04-.01-.09-.03-.12-.04-.06-.11-.07-.15,0Z"/>
    </g>
  </g>
  <g>
    <path class="cls-1" d="m128.92,19.26c-.88,0-1.65-.22-2.32-.65s-1.2-1.05-1.59-1.84-.58-1.72-.58-2.78.19-2,.58-2.79.91-1.41,1.59-1.84,1.45-.66,2.32-.66,1.64.22,2.31.66,1.2,1.05,1.59,1.84.58,1.72.58,2.79-.19,1.99-.58,2.78-.91,1.41-1.59,1.84-1.44.65-2.31.65Zm0-.9c.67,0,1.27-.17,1.8-.52s.95-.85,1.26-1.5.46-1.44.46-2.35-.15-1.71-.46-2.36-.73-1.15-1.26-1.5-1.13-.52-1.8-.52-1.28.17-1.81.52-.96.85-1.26,1.5-.46,1.44-.46,2.36.15,1.69.46,2.35.73,1.15,1.26,1.5,1.14.53,1.81.53Z"/>
    <path class="cls-1" d="m136.85,13.72v.59h-3.01v-.59h3.01Zm-1.94,5.54v-6.39c0-.29.07-.54.19-.74s.3-.35.51-.46.45-.16.71-.16c.16,0,.3.01.41.03s.2.04.26.06l-.15.59c-.05-.02-.11-.03-.19-.05s-.17-.02-.27-.02c-.27,0-.47.07-.61.22s-.21.36-.21.64v6.27h-.67Z"/>
    <path class="cls-1" d="m139.7,13.72v.59h-3.01v-.59h3.01Zm-1.94,5.54v-6.39c0-.29.06-.54.19-.74s.3-.35.52-.46.45-.16.71-.16c.16,0,.3.01.41.03s.2.04.26.06l-.15.59c-.05-.02-.12-.03-.19-.05s-.17-.02-.27-.02c-.27,0-.47.07-.61.22s-.21.36-.21.64v6.27h-.67Z"/>
    <path class="cls-1" d="m140.93,12.66c-.13,0-.25-.05-.35-.14s-.15-.21-.15-.34.05-.24.15-.33.21-.14.35-.14.25.05.35.14.15.2.15.33-.05.24-.15.34-.21.14-.35.14Zm-.34,6.6v-5.54h.67v5.54h-.67Z"/>
    <path class="cls-1" d="m144.82,19.26c-.48,0-.91-.12-1.28-.36s-.66-.58-.87-1.01-.31-.92-.31-1.48.11-1.06.31-1.49.5-.77.87-1.01.8-.36,1.28-.36c.29,0,.55.04.79.13s.45.2.64.34.34.31.46.49.21.37.27.56l-.65.16c-.03-.12-.09-.24-.17-.37s-.19-.24-.31-.34-.28-.19-.45-.25-.36-.1-.58-.1c-.37,0-.69.1-.96.3s-.47.47-.61.81c-.14.34-.21.72-.21,1.15s.07.8.21,1.14.34.61.61.81.59.3.96.3c.22,0,.41-.03.59-.1s.32-.15.45-.26.23-.22.31-.35.14-.26.17-.38l.65.16c-.05.19-.14.38-.26.57s-.28.35-.47.5-.4.26-.64.35-.51.13-.8.13Z"/>
    <path class="cls-1" d="m148.4,12.66c-.13,0-.25-.05-.35-.14s-.15-.21-.15-.34.05-.24.15-.33.21-.14.35-.14.25.05.35.14.15.2.15.33-.05.24-.15.34-.21.14-.35.14Zm-.34,6.6v-5.54h.67v5.54h-.67Z"/>
    <path class="cls-1" d="m151.61,19.26c-.34,0-.65-.06-.93-.19s-.5-.31-.67-.56-.25-.55-.25-.91c0-.28.05-.51.16-.7s.25-.34.45-.46.42-.21.68-.28.55-.13.87-.17c.31-.04.58-.07.79-.1s.38-.08.49-.14.17-.17.17-.3v-.12c0-.25-.05-.46-.16-.64s-.25-.31-.45-.41-.43-.15-.71-.15-.5.04-.7.13-.37.2-.5.34-.22.29-.28.46l-.66-.17c.1-.31.26-.57.47-.77s.46-.35.75-.45.59-.15.9-.15c.23,0,.47.03.71.1s.45.17.65.31.35.33.47.57.18.53.18.87v3.78h-.66v-.88h-.05c-.08.17-.19.33-.35.48s-.35.28-.57.37-.5.14-.81.14Zm.1-.6c.34,0,.64-.07.89-.22s.44-.35.57-.6.2-.53.2-.83v-.79s-.12.08-.23.12-.23.07-.38.1-.29.05-.43.07-.28.04-.41.06c-.31.04-.57.1-.79.18s-.39.19-.51.33-.18.32-.18.54.06.4.17.56.26.27.45.35.41.12.65.12Z"/>
    <path class="cls-1" d="m156.11,11.79v7.47h-.67v-7.47h.67Z"/>
    <path class="cls-1" d="m160.19,19.26v-7.47h2.55c.48,0,.89.08,1.23.25s.58.4.75.69.25.63.25,1.01c0,.31-.05.57-.16.79s-.25.4-.43.54-.39.24-.62.31v.05c.25.02.48.11.71.26.23.15.42.36.57.63s.22.58.22.95-.09.73-.26,1.03-.44.53-.79.7-.8.26-1.34.26h-2.68Zm.7-4.1h1.91c.3,0,.56-.06.78-.18s.4-.29.52-.5.19-.45.19-.72c0-.4-.13-.72-.4-.97s-.65-.37-1.16-.37h-1.84v2.74Zm0,3.47h1.97c.58,0,1-.13,1.29-.38s.43-.58.43-.98c0-.29-.07-.54-.21-.77s-.34-.4-.59-.54-.55-.2-.88-.2h-2v2.86Z"/>
    <path class="cls-1" d="m167.11,11.79v7.47h-.67v-7.47h.67Z"/>
    <path class="cls-1" d="m170.67,19.26c-.48,0-.91-.12-1.28-.36s-.66-.58-.87-1.01-.31-.93-.31-1.48.1-1.07.31-1.5.5-.77.87-1.01.8-.36,1.28-.36.92.12,1.29.36.66.58.87,1.01.31.93.31,1.5-.1,1.05-.31,1.48-.5.77-.87,1.01-.8.36-1.29.36Zm0-.61c.38,0,.7-.1.97-.3s.47-.47.61-.82.21-.72.21-1.13-.07-.8-.21-1.15c-.14-.34-.34-.62-.61-.82s-.59-.3-.97-.3-.69.1-.96.31-.47.48-.61.82c-.14.34-.21.72-.21,1.14s.07.8.21,1.14.34.61.61.81.59.3.96.3Z"/>
    <path class="cls-1" d="m176.39,21.35c-.38,0-.73-.05-1.02-.16s-.54-.25-.74-.43-.34-.4-.44-.65l.59-.27c.07.16.18.31.31.45s.31.25.52.33.47.13.78.13c.5,0,.9-.13,1.2-.38s.45-.64.45-1.15v-1.2h-.06c-.08.19-.2.36-.35.53s-.34.3-.56.41-.5.16-.82.16c-.44,0-.84-.11-1.19-.33s-.62-.54-.82-.95-.3-.9-.3-1.47.1-1.06.29-1.49.47-.76.82-1,.75-.36,1.2-.36c.32,0,.6.06.83.17s.42.26.57.43.26.36.34.54h.06v-1.06h.65v5.64c0,.48-.1.87-.3,1.18s-.48.54-.83.69-.75.22-1.19.22Zm-.04-2.83c.35,0,.66-.09.91-.26s.45-.42.59-.74.21-.71.21-1.15-.07-.82-.2-1.15c-.13-.33-.33-.59-.59-.78s-.56-.28-.92-.28-.67.1-.93.29-.45.45-.59.79c-.14.33-.2.71-.2,1.14s.07.81.21,1.13.33.58.59.76.57.27.93.27Z"/>
  </g>
  <g>
    <path class="cls-4" d="m30.64,11.46v-1.65h7.84v1.65h-2.93v7.96h-1.97v-7.96h-2.94Z"/>
    <path class="cls-4" d="m41.25,15.33v4.09h-1.92v-9.61h1.9v4.28h-.2c.19-.6.48-1.07.87-1.4s.89-.5,1.5-.5c.49,0,.93.11,1.3.32s.66.52.86.93.31.89.31,1.46v4.52h-1.93v-4.17c0-.45-.11-.8-.34-1.05s-.55-.38-.95-.38c-.27,0-.51.06-.72.18s-.37.29-.49.51-.18.5-.18.83Z"/>
    <path class="cls-4" d="m50.27,19.57c-.73,0-1.35-.15-1.88-.45s-.93-.73-1.22-1.28-.43-1.2-.43-1.94.14-1.38.43-1.93.68-.98,1.2-1.3,1.12-.47,1.81-.47c.48,0,.92.08,1.33.23s.77.38,1.07.69.55.68.72,1.14.25.98.25,1.57v.54h-6.05v-1.21h5.11l-.9.32c0-.37-.06-.69-.17-.96s-.29-.48-.51-.63-.5-.22-.84-.22-.61.08-.85.23-.41.36-.53.62-.18.56-.18.9v.85c0,.4.07.74.21,1.02s.33.49.58.64.55.22.88.22c.23,0,.44-.03.62-.1s.35-.16.48-.29.23-.28.3-.47l1.75.25c-.11.41-.31.77-.6,1.08s-.65.55-1.09.72-.93.25-1.49.25Z"/>
    <path class="cls-4" d="m54.09,19.43v-9.61h3l1.56,4.43c.06.21.14.47.23.79s.17.66.26,1.03.17.72.25,1.06.14.64.19.89h-.41c.05-.25.12-.54.19-.88s.16-.69.25-1.06.17-.71.26-1.04.16-.59.23-.79l1.54-4.43h3.01v9.61h-1.97v-4.54c0-.21,0-.47,0-.78s.02-.64.03-1,.02-.72.03-1.08.02-.71.02-1.03h.15c-.09.35-.18.72-.28,1.09s-.2.74-.3,1.09-.2.68-.28.97-.16.54-.23.73l-1.6,4.54h-1.65l-1.62-4.54c-.07-.19-.15-.44-.24-.73s-.18-.62-.29-.97-.21-.72-.31-1.09-.2-.74-.3-1.1h.18c0,.31.01.65.02,1.01l.03,1.08c0,.36.02.7.03,1.01s.01.58.01.79v4.54h-1.96Z"/>
    <path class="cls-4" d="m69.08,19.57c-.73,0-1.35-.15-1.88-.45s-.93-.73-1.22-1.28-.43-1.2-.43-1.94.14-1.38.43-1.93.68-.98,1.2-1.3,1.12-.47,1.81-.47c.48,0,.92.08,1.33.23s.77.38,1.07.69.55.68.72,1.14.25.98.25,1.57v.54h-6.05v-1.21h5.11l-.9.32c0-.37-.06-.69-.17-.96s-.29-.48-.51-.63-.5-.22-.84-.22-.61.08-.85.23-.41.36-.53.62-.18.56-.18.9v.85c0,.4.07.74.21,1.02s.33.49.58.64.55.22.88.22c.23,0,.44-.03.62-.1s.35-.16.48-.29.23-.28.3-.47l1.75.25c-.11.41-.31.77-.6,1.08s-.65.55-1.09.72-.93.25-1.49.25Z"/>
    <path class="cls-4" d="m76.08,19.57c-.58,0-1.1-.08-1.55-.25s-.82-.42-1.1-.74-.46-.71-.53-1.16l1.81-.25c.08.33.24.57.47.74s.54.25.93.25c.37,0,.65-.07.86-.21s.32-.32.32-.53c0-.18-.08-.34-.23-.45s-.38-.21-.69-.27l-1.23-.25c-.69-.14-1.2-.38-1.55-.72s-.52-.78-.52-1.32c0-.45.12-.84.37-1.17s.6-.59,1.05-.77.98-.27,1.58-.27,1.08.08,1.5.25.76.4,1.02.7.42.66.49,1.06l-1.72.24c-.06-.25-.19-.46-.4-.62s-.49-.24-.84-.24c-.32,0-.59.07-.8.2s-.31.31-.31.53c0,.18.07.33.21.45s.37.22.7.28l1.29.26c.7.14,1.21.37,1.55.68s.51.73.51,1.25c0,.47-.14.88-.41,1.23s-.65.62-1.13.82-1.03.29-1.65.29Z"/>
    <path class="cls-4" d="m82.04,15.33v4.09h-1.92v-9.61h1.9v4.28h-.2c.19-.6.48-1.07.87-1.4s.89-.5,1.5-.5c.49,0,.93.11,1.3.32s.66.52.86.93.31.89.31,1.46v4.52h-1.93v-4.17c0-.45-.11-.8-.34-1.05s-.55-.38-.95-.38c-.27,0-.51.06-.72.18s-.37.29-.49.51-.18.5-.18.83Z"/>
    <path class="cls-4" d="m89.86,19.56c-.46,0-.86-.08-1.23-.24s-.65-.4-.85-.71-.31-.71-.31-1.18c0-.4.07-.73.22-1s.35-.48.6-.65.54-.29.87-.37.67-.14,1.02-.18c.42-.04.75-.08,1.01-.12s.44-.09.55-.17.17-.19.17-.35v-.03c0-.2-.04-.37-.13-.51s-.22-.25-.38-.32-.37-.11-.61-.11-.46.04-.64.11-.33.18-.45.3-.19.27-.24.43l-1.77-.23c.1-.43.29-.8.57-1.1s.64-.54,1.07-.7.93-.24,1.48-.24c.4,0,.79.05,1.15.14s.69.24.97.44.51.45.67.75.24.67.24,1.09v4.81h-1.84v-.99h-.06c-.12.22-.27.42-.46.59s-.42.3-.69.4-.58.14-.94.14Zm.54-1.35c.31,0,.57-.06.8-.18s.41-.28.54-.48.19-.43.19-.68v-.75c-.06.03-.14.07-.25.1s-.23.06-.37.09-.28.05-.42.07-.27.04-.38.06c-.23.03-.44.09-.62.16s-.32.18-.42.3-.15.28-.15.47.05.33.14.46.22.22.38.28.35.1.56.1Z"/>
    <path class="cls-4" d="m98.22,19.57c-.71,0-1.33-.15-1.86-.46s-.93-.74-1.22-1.29-.43-1.19-.43-1.93.14-1.38.43-1.94.69-.99,1.22-1.29,1.14-.46,1.86-.46c.43,0,.83.06,1.2.17s.68.28.96.49.51.47.69.78.3.64.36,1.02l-1.81.26c-.04-.18-.1-.35-.17-.5s-.17-.27-.29-.38-.25-.19-.4-.24-.32-.08-.51-.08c-.34,0-.62.09-.85.27s-.41.43-.53.76-.18.7-.18,1.13.06.8.18,1.13.3.58.53.76.52.27.85.27c.19,0,.36-.03.51-.09s.29-.14.41-.25.22-.24.3-.39.14-.33.17-.52l1.81.26c-.06.38-.17.73-.35,1.03s-.41.57-.69.79-.6.39-.97.51-.77.17-1.2.17Z"/>
    <path class="cls-4" d="m102.3,19.43v-9.61h1.92v9.61h-1.92Zm1.74-2.08v-2.31h.28l2.36-2.74h2.24l-3.11,3.57h-.45l-1.32,1.47Zm2.75,2.08l-2.16-3.12,1.28-1.37,3.14,4.48h-2.26Z"/>
    <path class="cls-4" d="m110.16,19.43v-9.61h3l1.56,4.43c.06.21.14.47.23.79s.17.66.26,1.03.17.72.25,1.06.14.64.19.89h-.41c.05-.25.12-.54.19-.88s.16-.69.25-1.06.17-.71.26-1.04.16-.59.23-.79l1.54-4.43h3.01v9.61h-1.97v-4.54c0-.21,0-.47,0-.78s.02-.64.03-1,.02-.72.03-1.08.02-.71.02-1.03h.15c-.09.35-.18.72-.28,1.09s-.2.74-.3,1.09-.2.68-.28.97-.16.54-.23.73l-1.6,4.54h-1.65l-1.62-4.54c-.07-.19-.15-.44-.24-.73s-.18-.62-.29-.97-.21-.72-.31-1.09-.2-.74-.3-1.1h.18c0,.31.01.65.02,1.01l.03,1.08c0,.36.02.7.03,1.01s.01.58.01.79v4.54h-1.96Z"/>
  </g>
</svg>