<?xml version="1.0" encoding="UTF-8"?>
<svg width="30px" height="53px" viewBox="0 0 30 53" version="1.1" xmlns="http://www.w3.org/2000/svg" xmlns:xlink="http://www.w3.org/1999/xlink">
    <title>logo-dark-white nodes</title>
    <defs>
        <path d="M0,0 L30,0 L30,52 L0,52 L0,0 Z" id="path-1"></path>
    </defs>
    <g id="logo-dark-white-nodes" stroke="none" fill="none" transform="translate(0, 0.7368)" xlink:href="#path-1" fill-rule="evenodd" stroke-width="1">
        <g id="icon" transform="translate(3.1297, 3.3013)" fill="#151D1E">
            <path d="M12.2987755,24.3667614 C12.1998818,24.3667614 12.1009882,24.3573679 12.0110849,24.3385809 L12.0110849,30.7543473 C12.1099785,30.7355603 12.1998818,30.7261668 12.2987755,30.7261668 C12.3976692,30.7261668 12.4965628,30.7355603 12.5864662,30.7543473 L12.5864662,24.3385809 C12.4875725,24.3573679 12.3976692,24.3667614 12.2987755,24.3667614 L12.2987755,24.3667614 Z" id="Path"></path>
            <path d="M6.96750806,28.9507937 L10.8423416,31.5809761 C10.9502256,31.4024994 11.0760902,31.2522033 11.2379162,31.1206941 L7.35409237,28.4811182 C7.25519871,28.6595949 7.12034372,28.8192845 6.97649839,28.9507937 L6.96750806,28.9507937 Z" id="Path"></path>
            <path d="M17.468217,30.2189173 L13.7731901,31.5903696 C13.8720838,31.7594527 13.9529968,31.9567164 13.9889581,32.1539801 L17.7019656,30.7731343 C17.5940816,30.6040512 17.5131686,30.416181 17.4592266,30.2189173 L17.468217,30.2189173 Z" id="Path"></path>
            <path d="M10.6085929,13.0100095 L6.94053706,14.4941838 C7.03943072,14.663267 7.11135338,14.8605307 7.15630505,15.0577944 L10.8243609,13.57362 C10.7254672,13.4045368 10.6535446,13.2072732 10.6085929,13.0100095 Z" id="Path"></path>
            <path d="M12.0110849,14.4284293 L12.0110849,20.7784411 C12.1099785,20.7596541 12.1998818,20.7502606 12.2987755,20.7502606 C12.3976692,20.7502606 12.4965628,20.7596541 12.5864662,20.7784411 L12.5864662,14.4284293 C12.4875725,14.4472163 12.3976692,14.4566098 12.2987755,14.4566098 C12.1998818,14.4566098 12.1009882,14.4472163 12.0110849,14.4284293 Z" id="Path"></path>
            <path d="M11.2738776,24.0098081 C11.1120516,23.8876925 10.9771966,23.7373964 10.8693126,23.5683132 L7.09337272,26.3018242 C7.22822771,26.4427268 7.34510204,26.6212035 7.42601504,26.7996802 L11.2738776,24.0098081 L11.2738776,24.0098081 Z" id="Path"></path>
            <path d="M3.2724812,36.8507344 C3.4073362,37.0010306 3.51522019,37.1701137 3.58714286,37.3673774 L10.7794092,33.4033167 C10.6895059,33.2248401 10.6265736,33.0275764 10.5906122,32.8209192 L3.26349087,36.8601279 L3.2724812,36.8507344 Z" id="Path"></path>
            <path d="M13.8451128,42.1298863 C13.9350161,42.3083629 13.9889581,42.5056266 14.0159291,42.7216773 L21.1093018,39.2648661 C21.0104082,39.0863895 20.9384855,38.8985193 20.9025242,38.6918621 L13.8451128,42.1298863 Z" id="Path"></path>
            <path d="M5.32227712,29.2795665 C5.13348013,29.2138119 4.95367347,29.1198768 4.80083781,28.9883677 L2.29253491,36.2871239 C2.49032223,36.3246979 2.67012889,36.3904525 2.84094522,36.4937811 L5.32227712,29.2795665 Z" id="Path"></path>
            <path d="M12.5954565,41.1623549 L12.5954565,34.3144871 C12.4965628,34.3332741 12.4066595,34.3426676 12.3077658,34.3426676 C12.2088722,34.3426676 12.1099785,34.3332741 12.0200752,34.3144871 L12.0200752,41.1623549 C12.1189689,41.1435679 12.2088722,41.1341744 12.3077658,41.1341744 C12.4066595,41.1341744 12.5055532,41.1435679 12.5954565,41.1623549 Z" id="Path"></path>
            <path d="M13.2517508,24.0661692 L17.6480236,28.8568586 C17.7469173,28.6783819 17.872782,28.5186923 18.0256176,28.3871831 L13.6832868,23.6528548 C13.5664125,23.8125444 13.4225671,23.9534471 13.2607411,24.0661692 L13.2517508,24.0661692 Z" id="Path"></path>
            <path d="M21.6307411,36.8507344 C21.7925671,36.7380123 21.9723738,36.6534707 22.1611708,36.5971097 L19.8956069,31.3931059 C19.7247905,31.487041 19.5270032,31.543402 19.3292159,31.5621891 L21.6217508,36.8507344 L21.6307411,36.8507344 Z" id="Path"></path>
            <path d="M11.1570032,21.201149 L6.84164339,16.4856077 C6.72476907,16.6452973 6.58092374,16.7955935 6.41909774,16.9083156 L10.7883996,21.680218 C10.8872932,21.5017413 11.0131579,21.3420516 11.1570032,21.201149 L11.1570032,21.201149 Z" id="Path"></path>
            <path d="M3.33541353,8.22871357 C3.17358754,8.34143568 2.99378088,8.41658375 2.79599356,8.4729448 L4.60305048,13.8366382 C4.77386681,13.7427032 4.95367347,13.6675551 5.15146079,13.6393746 L3.3264232,8.23810708 L3.33541353,8.22871357 Z" id="Path"></path>
            <path d="M10.8423416,2.76169154 C10.7344576,2.59260839 10.6625349,2.40473821 10.6175832,2.19808102 L3.80291085,5.65489221 C3.91978518,5.82397536 4.00069817,6.00245203 4.05464017,6.19971571 L10.8333512,2.75229803 L10.8423416,2.76169154 Z" id="Path"></path>
            <path d="M21.2531472,7.83418621 C21.1362728,7.67449656 21.0373792,7.4960199 20.9744468,7.29875622 L13.6563158,11.5164416 C13.7731901,11.6761312 13.8720838,11.8546079 13.9350161,12.0518716 L21.2531472,7.83418621 Z" id="Path"></path>
            <path d="M12.0110849,3.57892679 L12.0110849,10.8682895 C12.1099785,10.8495025 12.1998818,10.840109 12.2987755,10.840109 C12.3976692,10.840109 12.4965628,10.8495025 12.5864662,10.8682895 L12.5864662,3.57892679 C12.4875725,3.59771381 12.3976692,3.60710732 12.2987755,3.60710732 C12.1998818,3.60710732 12.1009882,3.59771381 12.0110849,3.57892679 Z" id="Path"></path>
            <path d="M17.1535553,16.3822791 L13.8091515,13.536046 C13.7102578,13.7145226 13.5843931,13.8742123 13.4405478,14.0057214 L16.7849517,16.8519545 C16.8838453,16.6734778 17.00971,16.5137882 17.1535553,16.3822791 Z" id="Path"></path>
            <path d="M18.4661439,15.9407842 C18.6639313,15.9595712 18.8617186,16.0253258 19.0325349,16.1098673 L22.1881418,8.46355129 C21.9903545,8.41658375 21.8105478,8.33204217 21.6487218,8.21932007 L18.4571536,15.9313907 L18.4661439,15.9407842 Z" id="Path"></path>
            <path d="M5.8616971,31.0361526 C6.67082707,31.0361526 7.40803437,30.7355603 7.98341568,30.2377043 C8.27110634,29.9840796 8.52283566,29.6834873 8.71163265,29.3359275 C9.00831364,28.8192845 9.17912997,28.2087065 9.17912997,27.5699479 C9.17912997,27.0439114 9.06225564,26.5460554 8.86446831,26.1045605 C8.70264232,25.7476072 8.48687433,25.4188344 8.22615467,25.1370291 C7.62380236,24.4982706 6.7877014,24.0943497 5.85270677,24.0943497 C4.01867884,24.0943497 2.52628357,25.6536721 2.52628357,27.5699479 C2.52628357,28.6877754 3.03873255,29.6834873 3.82089151,30.3128524 C4.1175725,30.5570836 4.45920516,30.7449538 4.81881847,30.8670694 C5.14247046,30.9797915 5.48410311,31.0361526 5.84371643,31.0361526 L5.8616971,31.0361526 Z" id="Path"></path>
            <path d="M2.97580021,36.2495499 C2.77801289,36.1368278 2.57123523,36.0522862 2.34647691,36.0147122 C2.22960258,35.9959251 2.12171858,35.9771381 1.99585392,35.9771381 C0.890042965,35.9771381 0,36.9070955 0,38.062497 C0,39.2178986 0.890042965,40.147856 1.99585392,40.147856 C3.10166488,40.147856 3.99170784,39.2178986 3.99170784,38.062497 C3.99170784,37.7712983 3.93776584,37.4988865 3.83887218,37.2546553 C3.74896885,37.0386046 3.62310419,36.8319474 3.47026853,36.6628643 C3.3264232,36.5031746 3.16459721,36.362272 2.97580021,36.2495499 Z" id="Path"></path>
            <path d="M12.5954565,34.3144871 C13.4135768,34.1735845 14.0339098,33.4314973 14.0339098,32.539114 C14.0339098,32.4076048 14.0249194,32.2854892 13.9979484,32.1633736 C13.9529968,31.9567164 13.8810741,31.7688462 13.7821805,31.5997631 C13.5304511,31.1676617 13.0989151,30.8482824 12.5954565,30.7637408 C12.4965628,30.7449538 12.4066595,30.7355603 12.3077658,30.7355603 C12.2088722,30.7355603 12.1099785,30.7449538 12.0200752,30.7637408 C11.7233942,30.8201019 11.4626745,30.9422175 11.2379162,31.1300877 C11.0850806,31.2615968 10.9502256,31.4118929 10.8423416,31.5903696 C10.6805156,31.8721748 10.5816219,32.1915541 10.5816219,32.5485075 C10.5816219,32.6424425 10.5816219,32.7363776 10.5996026,32.8209192 C10.6265736,33.0275764 10.6895059,33.2248401 10.7883996,33.4033167 C11.0401289,33.8823857 11.4896455,34.2299455 12.0200752,34.3238806 C12.1189689,34.3426676 12.2088722,34.3520611 12.3077658,34.3520611 C12.4066595,34.3520611 12.5055532,34.3426676 12.5954565,34.3238806 L12.5954565,34.3144871 Z" id="Path"></path>
            <path d="M11.1300322,24.2070718 C11.3727712,24.394942 11.6604619,24.5264511 11.9661332,24.5828121 C12.0740172,24.6015991 12.1819012,24.6109927 12.2987755,24.6109927 C12.4156498,24.6109927 12.5235338,24.6015991 12.6314178,24.5828121 C12.9011278,24.5358446 13.1528571,24.432516 13.3776155,24.2822199 C13.5664125,24.1507107 13.7282385,23.9910211 13.8630934,23.8125444 C14.1148228,23.4649846 14.2676584,23.0328832 14.2676584,22.5632078 C14.2676584,21.5487088 13.5574221,20.7032931 12.6314178,20.5436034 C12.5235338,20.5248164 12.4156498,20.5154229 12.2987755,20.5154229 C12.1819012,20.5154229 12.0740172,20.5248164 11.9661332,20.5436034 C11.5975295,20.609358 11.2648872,20.7784411 11.0041676,21.0226724 C10.8333512,21.1729685 10.6895059,21.3608387 10.5816219,21.5674959 C10.4287863,21.8586946 10.3298926,22.2062544 10.3298926,22.5632078 C10.3298926,22.9859157 10.4557573,23.380443 10.6625349,23.6998223 C10.7883996,23.897086 10.9502256,24.0661692 11.1300322,24.2070718 L11.1300322,24.2070718 Z" id="Path"></path>
            <path d="M17.6480236,28.8662521 C17.5041783,29.1292703 17.414275,29.4392561 17.414275,29.7680289 C17.414275,29.9277186 17.4322556,30.0780147 17.468217,30.2189173 C17.522159,30.416181 17.5940816,30.6134447 17.710956,30.7731343 C18.0256176,31.2522033 18.5470569,31.5715826 19.1494092,31.5715826 C19.2123416,31.5715826 19.2752739,31.5715826 19.3471966,31.5621891 C19.5449839,31.543402 19.7427712,31.4776475 19.9135875,31.3931059 C20.4889689,31.1019071 20.8845435,30.4819356 20.8845435,29.7680289 C20.8845435,28.772317 20.1113749,27.9644752 19.1583996,27.9644752 C18.7268636,27.9644752 18.3402793,28.1241649 18.0346079,28.3965766 C17.8817723,28.5280858 17.7559076,28.6877754 17.657014,28.8662521 L17.6480236,28.8662521 Z" id="Path"></path>
            <path d="M22.6016971,36.5313551 C22.4488614,36.5313551 22.3050161,36.5501421 22.1611708,36.5877162 C21.9723738,36.6440772 21.7925671,36.7286188 21.6307411,36.8413409 C21.1722342,37.1701137 20.8755532,37.7149372 20.8755532,38.3349088 C20.8755532,38.4476309 20.8845435,38.560353 20.9115145,38.6730751 C20.9474758,38.8797323 21.0193985,39.0676025 21.1182922,39.2460791 C21.4149731,39.7815091 21.9723738,40.1384624 22.6106874,40.1384624 C23.5636627,40.1384624 24.3368314,39.3306207 24.3368314,38.3349088 C24.3368314,37.3391969 23.5636627,36.5313551 22.6106874,36.5313551 L22.6016971,36.5313551 Z" id="Path"></path>
            <path d="M12.6673792,40.7302535 C12.5505048,40.7114665 12.4246402,40.6926795 12.3077658,40.6926795 C12.1908915,40.6926795 12.0650269,40.702073 11.9481525,40.7302535 C10.9322449,40.9087302 10.1590763,41.829294 10.1590763,42.937728 C10.1590763,44.1776712 11.1210419,45.1827766 12.3077658,45.1827766 C13.4944898,45.1827766 14.4564554,44.1776712 14.4564554,42.937728 C14.4564554,42.8437929 14.4564554,42.7498579 14.4384748,42.6559228 C14.4025134,42.3929045 14.3305908,42.1486733 14.2227068,41.9232291 C13.9170354,41.3032575 13.3506445,40.8523691 12.6673792,40.7302535 Z" id="Path"></path>
            <path d="M18.2953276,15.9313907 C17.8548013,15.9313907 17.4592266,16.1004738 17.1535553,16.3822791 C17.00971,16.5137882 16.8838453,16.6734778 16.7849517,16.8519545 C16.6411063,17.1149728 16.5601933,17.415565 16.5601933,17.7349443 C16.5601933,18.7306562 17.333362,19.538498 18.2863373,19.538498 C19.2393126,19.538498 20.0124812,18.7306562 20.0124812,17.7349443 C20.0124812,17.0116442 19.6079162,16.3916726 19.0235446,16.1004738 C18.8527282,16.0159322 18.6549409,15.9501777 18.4571536,15.9313907 C18.4032116,15.9313907 18.3402793,15.9313907 18.2773469,15.9313907 L18.2953276,15.9313907 Z" id="Path"></path>
            <path d="M4.58506982,6.70696517 C4.58506982,6.48152097 4.54910849,6.27486378 4.49516649,6.06820659 C4.42324382,5.81458185 4.31535983,5.57974414 4.1715145,5.37308695 C3.77593985,4.79068941 3.12863588,4.41494906 2.39142857,4.41494906 C1.17773362,4.41494906 0.197787325,5.43884151 0.197787325,6.70696517 C0.197787325,7.97508884 1.17773362,8.99898128 2.39142857,8.99898128 C2.57123523,8.99898128 2.73306122,8.97080076 2.90387755,8.93322672 C3.14661654,8.86747216 3.3803652,8.76414357 3.58714286,8.63263445 C4.18949517,8.22871357 4.58506982,7.51480692 4.58506982,6.71635868 L4.58506982,6.70696517 Z" id="Path"></path>
            <path d="M6.84164339,16.4856077 C7.05741139,16.1850154 7.18327605,15.8092751 7.18327605,15.4147477 C7.18327605,15.2926321 7.17428571,15.1705165 7.14731472,15.0577944 C7.11135338,14.8511372 7.03044039,14.663267 6.93154672,14.4941838 C6.6258754,13.9681474 6.07746509,13.611194 5.44814178,13.611194 C5.34924812,13.611194 5.25035446,13.6205875 5.16045113,13.6393746 C4.9626638,13.6769486 4.77386681,13.7427032 4.61204082,13.8366382 C4.08161117,14.146624 3.72199785,14.7384151 3.72199785,15.4147477 C3.72199785,16.4104596 4.49516649,17.2183014 5.44814178,17.2183014 C5.8077551,17.2183014 6.14039742,17.1055792 6.41909774,16.9083156 C6.58092374,16.7955935 6.72476907,16.6452973 6.84164339,16.4856077 L6.84164339,16.4856077 Z" id="Path"></path>
            <path d="M21.6577121,8.22871357 C21.8195381,8.34143568 21.9993448,8.41658375 22.1971321,8.4729448 C22.3319871,8.51051883 22.4668421,8.52930585 22.6016971,8.52930585 C23.5546724,8.52930585 24.327841,7.72146411 24.327841,6.72575219 C24.327841,5.73004027 23.5546724,4.92219853 22.6016971,4.92219853 C21.6487218,4.92219853 20.8755532,5.73004027 20.8755532,6.72575219 C20.8755532,6.93240938 20.9115145,7.12967306 20.9744468,7.31754324 C21.0373792,7.51480692 21.1362728,7.69328358 21.2531472,7.85297323 C21.3700215,8.00326937 21.5048765,8.13477849 21.6577121,8.23810708 L21.6577121,8.22871357 Z" id="Path"></path>
            <path d="M11.7953169,9.5625918 C10.3838346,9.81621654 9.30499463,11.0937337 9.30499463,12.6436626 C9.30499463,12.8597133 9.3229753,13.0663705 9.36792696,13.2636342 C9.43984962,13.6205875 9.56571429,13.9493603 9.73653061,14.2499526 C10.1770569,15.0202203 10.9232546,15.5744373 11.8043072,15.734127 C11.9661332,15.7623075 12.1369495,15.7810945 12.3077658,15.7810945 C12.4785822,15.7810945 12.6493985,15.7623075 12.8112245,15.734127 C13.3686251,15.6307984 13.8720838,15.3771737 14.2766488,15.0108268 C14.5283781,14.7759891 14.7441461,14.5035774 14.9149624,14.1935916 C15.1577014,13.7427032 15.3015467,13.2166667 15.3015467,12.6530561 C15.3015467,12.2961028 15.2386144,11.948543 15.1307304,11.6291637 C15.0138561,11.2909974 14.8520301,10.9810116 14.6452524,10.7085999 C14.1957358,10.1262023 13.5484318,9.71288794 12.8112245,9.58137882 C12.6493985,9.55319829 12.4785822,9.53441128 12.3077658,9.53441128 C12.1369495,9.53441128 11.9661332,9.55319829 11.8043072,9.58137882 L11.7953169,9.5625918 Z" id="Path"></path>
            <path d="M12.0110849,3.57892679 C12.1099785,3.59771381 12.1998818,3.60710732 12.2987755,3.60710732 C12.3976692,3.60710732 12.4965628,3.59771381 12.5864662,3.57892679 C13.4045865,3.43802416 14.0249194,2.69593698 14.0249194,1.80355366 C14.0249194,0.807841744 13.2517508,0 12.2987755,0 C11.3458002,0 10.5726316,0.807841744 10.5726316,1.80355366 C10.5726316,1.94445629 10.5906122,2.07596541 10.6175832,2.20747453 C10.6625349,2.41413172 10.7344576,2.6020019 10.8423416,2.77108505 C11.1030612,3.19379294 11.5166165,3.49438522 12.0110849,3.5883203 L12.0110849,3.57892679 Z" id="Path"></path>
        </g>
    </g>
</svg>