<?xml version="1.0" encoding="UTF-8"?>
<svg width="102px" height="134px" viewBox="0 0 102 134" version="1.1" xmlns="http://www.w3.org/2000/svg" xmlns:xlink="http://www.w3.org/1999/xlink">
    <title>logo icon neg@1x</title>
    <defs>
        <path d="M0,0 L102,0 L102,134 L0,134 L0,0 Z" id="path-1"></path>
    </defs>
    <g id="logo-icon-neg" stroke="none" fill="none" xlink:href="#path-1" fill-rule="evenodd">
        <use fill-opacity="0" fill="#FFFFFF" xlink:href="#path-1"></use>
        <g id="icon" stroke-width="1" transform="translate(19.9285, 8.5071)" fill="#FFFFFF">
            <path d="M31.156898,62.7912698 C30.9063673,62.7912698 30.6558367,62.7670635 30.4280816,62.7186508 L30.4280816,79.2515873 C30.6786122,79.2031746 30.9063673,79.1789683 31.156898,79.1789683 C31.4074286,79.1789683 31.6579592,79.2031746 31.8857143,79.2515873 L31.8857143,62.7186508 C31.6351837,62.7670635 31.4074286,62.7912698 31.156898,62.7912698 L31.156898,62.7912698 Z" id="Path"></path>
            <path d="M17.6510204,74.6039683 L27.4672653,81.381746 C27.7405714,80.9218254 28.0594286,80.5345238 28.4693878,80.1956349 L18.6303673,73.3936508 C18.3798367,73.8535714 18.0382041,74.2650794 17.6737959,74.6039683 L17.6510204,74.6039683 Z" id="Path"></path>
            <path d="M44.2528163,77.8718254 L34.8920816,81.4059524 C35.1426122,81.8416667 35.3475918,82.35 35.4386939,82.8583333 L44.8449796,79.3 C44.5716735,78.8642857 44.3666939,78.3801587 44.2300408,77.8718254 L44.2528163,77.8718254 Z" id="Path"></path>
            <path d="M26.875102,33.5257937 L17.5826939,37.3503968 C17.8332245,37.7861111 18.0154286,38.2944444 18.1293061,38.8027778 L27.4217143,34.9781746 C27.1711837,34.5424603 26.9889796,34.034127 26.875102,33.5257937 Z" id="Path"></path>
            <path d="M30.4280816,37.1809524 L30.4280816,53.5444444 C30.6786122,53.4960317 30.9063673,53.4718254 31.156898,53.4718254 C31.4074286,53.4718254 31.6579592,53.4960317 31.8857143,53.5444444 L31.8857143,37.1809524 C31.6351837,37.2293651 31.4074286,37.2535714 31.156898,37.2535714 C30.9063673,37.2535714 30.6558367,37.2293651 30.4280816,37.1809524 Z" id="Path"></path>
            <path d="M28.5604898,61.8714286 C28.1505306,61.556746 27.808898,61.1694444 27.5355918,60.7337302 L17.9698776,67.7777778 C18.3115102,68.140873 18.6075918,68.6007937 18.8125714,69.0607143 L28.5604898,61.8714286 L28.5604898,61.8714286 Z" id="Path"></path>
            <path d="M8.29028571,94.9615079 C8.63191837,95.3488095 8.90522449,95.7845238 9.08742857,96.2928571 L27.3078367,86.0777778 C27.0800816,85.6178571 26.9206531,85.1095238 26.829551,84.5769841 L8.2675102,94.9857143 L8.29028571,94.9615079 Z" id="Path"></path>
            <path d="M35.0742857,108.565476 C35.3020408,109.025397 35.4386939,109.53373 35.5070204,110.090476 L53.476898,101.18254 C53.2263673,100.722619 53.0441633,100.238492 52.9530612,99.7059524 L35.0742857,108.565476 Z" id="Path"></path>
            <path d="M13.483102,75.4511905 C13.0048163,75.281746 12.5493061,75.0396825 12.1621224,74.7007937 L5.8077551,93.509127 C6.30881633,93.6059524 6.76432653,93.7753968 7.19706122,94.0416667 L13.483102,75.4511905 Z" id="Path"></path>
            <path d="M31.9084898,106.072222 L31.9084898,88.4257937 C31.6579592,88.4742063 31.4302041,88.4984127 31.1796735,88.4984127 C30.9291429,88.4984127 30.6786122,88.4742063 30.4508571,88.4257937 L30.4508571,106.072222 C30.7013878,106.02381 30.9291429,105.999603 31.1796735,105.999603 C31.4302041,105.999603 31.6807347,106.02381 31.9084898,106.072222 Z" id="Path"></path>
            <path d="M33.571102,62.0166667 L44.7083265,74.3619048 C44.9588571,73.9019841 45.2777143,73.4904762 45.664898,73.1515873 L34.6643265,60.9515873 C34.3682449,61.3630952 34.0038367,61.7261905 33.5938776,62.0166667 L33.571102,62.0166667 Z" id="Path"></path>
            <path d="M54.7978776,94.9615079 C55.2078367,94.6710317 55.6633469,94.4531746 56.1416327,94.3079365 L50.4022041,80.897619 C49.9694694,81.1396825 49.4684082,81.2849206 48.9673469,81.3333333 L54.775102,94.9615079 L54.7978776,94.9615079 Z" id="Path"></path>
            <path d="M28.2644082,54.6337302 L17.3321633,42.4821429 C17.0360816,42.8936508 16.6716735,43.2809524 16.2617143,43.5714286 L27.3306122,55.868254 C27.5811429,55.4083333 27.9,54.9968254 28.2644082,54.6337302 L28.2644082,54.6337302 Z" id="Path"></path>
            <path d="M8.44971429,21.2047619 C8.0397551,21.4952381 7.5842449,21.6888889 7.08318367,21.834127 L11.6610612,35.6559524 C12.0937959,35.4138889 12.5493061,35.2202381 13.0503673,35.147619 L8.42693878,21.2289683 L8.44971429,21.2047619 Z" id="Path"></path>
            <path d="M27.4672653,7.11666667 C27.1939592,6.68095238 27.0117551,6.1968254 26.8978776,5.66428571 L9.63404082,14.5722222 C9.93012245,15.0079365 10.135102,15.4678571 10.2717551,15.9761905 L27.4444898,7.09246032 L27.4672653,7.11666667 Z" id="Path"></path>
            <path d="M53.8413061,20.1880952 C53.5452245,19.7765873 53.2946939,19.3166667 53.1352653,18.8083333 L34.596,29.6769841 C34.8920816,30.0884921 35.1426122,30.5484127 35.3020408,31.056746 L53.8413061,20.1880952 Z" id="Path"></path>
            <path d="M30.4280816,9.22261905 L30.4280816,28.006746 C30.6786122,27.9583333 30.9063673,27.934127 31.156898,27.934127 C31.4074286,27.934127 31.6579592,27.9583333 31.8857143,28.006746 L31.8857143,9.22261905 C31.6351837,9.27103175 31.4074286,9.2952381 31.156898,9.2952381 C30.9063673,9.2952381 30.6558367,9.27103175 30.4280816,9.22261905 Z" id="Path"></path>
            <path d="M43.4556735,42.215873 L34.9831837,34.8813492 C34.7326531,35.3412698 34.4137959,35.7527778 34.0493878,36.0916667 L42.5218776,43.4261905 C42.7724082,42.9662698 43.0912653,42.5547619 43.4556735,42.215873 Z" id="Path"></path>
            <path d="M46.780898,41.0781746 C47.2819592,41.1265873 47.7830204,41.2960317 48.2157551,41.5138889 L56.2099592,21.8099206 C55.708898,21.6888889 55.2533878,21.4710317 54.8434286,21.1805556 L46.7581224,41.0539683 L46.780898,41.0781746 Z" id="Path"></path>
            <path d="M14.8496327,79.9777778 C16.8994286,79.9777778 18.7670204,79.2031746 20.2246531,77.9202381 C20.9534694,77.2666667 21.5911837,76.4920635 22.0694694,75.5964286 C22.8210612,74.2650794 23.2537959,72.6916667 23.2537959,71.0456349 C23.2537959,69.6900794 22.9577143,68.4071429 22.4566531,67.2694444 C22.0466939,66.3496032 21.5000816,65.502381 20.8395918,64.7761905 C19.3136327,63.1301587 17.1955102,62.0892857 14.8268571,62.0892857 C10.1806531,62.0892857 6.39991837,66.1075397 6.39991837,71.0456349 C6.39991837,73.9261905 7.69812245,76.4920635 9.67959184,78.1138889 C10.4311837,78.743254 11.2966531,79.227381 12.2076735,79.5420635 C13.0275918,79.8325397 13.8930612,79.9777778 14.8040816,79.9777778 L14.8496327,79.9777778 Z" id="Path"></path>
            <path d="M7.53869388,93.4123016 C7.03763265,93.1218254 6.51379592,92.9039683 5.94440816,92.8071429 C5.64832653,92.7587302 5.37502041,92.7103175 5.05616327,92.7103175 C2.25477551,92.7103175 0,95.106746 0,98.084127 C0,101.061508 2.25477551,103.457937 5.05616327,103.457937 C7.85755102,103.457937 10.1123265,101.061508 10.1123265,98.084127 C10.1123265,97.3337302 9.97567347,96.631746 9.72514286,96.002381 C9.49738776,95.4456349 9.17853061,94.9130952 8.79134694,94.477381 C8.42693878,94.065873 8.01697959,93.7027778 7.53869388,93.4123016 Z" id="Path"></path>
            <path d="M31.9084898,88.4257937 C33.9810612,88.0626984 35.5525714,86.1503968 35.5525714,83.8507937 C35.5525714,83.5119048 35.5297959,83.1972222 35.4614694,82.8825397 C35.3475918,82.35 35.1653878,81.865873 34.9148571,81.4301587 C34.2771429,80.3166667 33.1839184,79.4936508 31.9084898,79.2757937 C31.6579592,79.227381 31.4302041,79.2031746 31.1796735,79.2031746 C30.9291429,79.2031746 30.6786122,79.227381 30.4508571,79.2757937 C29.6992653,79.4210317 29.0387755,79.7357143 28.4693878,80.2198413 C28.0822041,80.5587302 27.7405714,80.9460317 27.4672653,81.4059524 C27.0573061,82.1321429 26.8067755,82.9551587 26.8067755,83.875 C26.8067755,84.1170635 26.8067755,84.359127 26.8523265,84.5769841 C26.9206531,85.1095238 27.0800816,85.6178571 27.3306122,86.0777778 C27.9683265,87.3123016 29.107102,88.2079365 30.4508571,88.45 C30.7013878,88.4984127 30.9291429,88.522619 31.1796735,88.522619 C31.4302041,88.522619 31.6807347,88.4984127 31.9084898,88.45 L31.9084898,88.4257937 Z" id="Path"></path>
            <path d="M28.1960816,62.3797619 C28.8110204,62.8638889 29.5398367,63.2027778 30.3142041,63.3480159 C30.5875102,63.3964286 30.8608163,63.4206349 31.156898,63.4206349 C31.4529796,63.4206349 31.7262857,63.3964286 31.9995918,63.3480159 C32.6828571,63.2269841 33.3205714,62.9607143 33.8899592,62.5734127 C34.3682449,62.2345238 34.7782041,61.8230159 35.1198367,61.3630952 C35.757551,60.4674603 36.1447347,59.3539683 36.1447347,58.1436508 C36.1447347,55.5293651 34.3454694,53.3507937 31.9995918,52.9392857 C31.7262857,52.890873 31.4529796,52.8666667 31.156898,52.8666667 C30.8608163,52.8666667 30.5875102,52.890873 30.3142041,52.9392857 C29.3804082,53.1087302 28.5377143,53.5444444 27.8772245,54.1738095 C27.4444898,54.5611111 27.0800816,55.0452381 26.8067755,55.5777778 C26.4195918,56.3281746 26.1690612,57.2238095 26.1690612,58.1436508 C26.1690612,59.2329365 26.4879184,60.2496032 27.0117551,61.072619 C27.3306122,61.5809524 27.7405714,62.0166667 28.1960816,62.3797619 L28.1960816,62.3797619 Z" id="Path"></path>
            <path d="M44.7083265,74.3861111 C44.3439184,75.0638889 44.1161633,75.8626984 44.1161633,76.7099206 C44.1161633,77.1214286 44.1617143,77.5087302 44.2528163,77.8718254 C44.3894694,78.3801587 44.5716735,78.8884921 44.8677551,79.3 C45.664898,80.5345238 46.9858776,81.3575397 48.5118367,81.3575397 C48.6712653,81.3575397 48.8306939,81.3575397 49.012898,81.3333333 C49.5139592,81.2849206 50.0150204,81.1154762 50.4477551,80.897619 C51.9053878,80.1472222 52.9075102,78.5496032 52.9075102,76.7099206 C52.9075102,74.1440476 50.9488163,72.0623016 48.5346122,72.0623016 C47.4413878,72.0623016 46.4620408,72.4738095 45.6876735,73.1757937 C45.3004898,73.5146825 44.9816327,73.9261905 44.731102,74.3861111 L44.7083265,74.3861111 Z" id="Path"></path>
            <path d="M57.2576327,94.1384921 C56.870449,94.1384921 56.5060408,94.1869048 56.1416327,94.2837302 C55.6633469,94.4289683 55.2078367,94.6468254 54.7978776,94.9373016 C53.6363265,95.7845238 52.8847347,97.1884921 52.8847347,98.7861111 C52.8847347,99.0765873 52.9075102,99.3670635 52.9758367,99.6575397 C53.0669388,100.190079 53.2491429,100.674206 53.4996735,101.134127 C54.2512653,102.513889 55.6633469,103.43373 57.2804082,103.43373 C59.6946122,103.43373 61.6533061,101.351984 61.6533061,98.7861111 C61.6533061,96.2202381 59.6946122,94.1384921 57.2804082,94.1384921 L57.2576327,94.1384921 Z" id="Path"></path>
            <path d="M32.0906939,104.95873 C31.7946122,104.910317 31.4757551,104.861905 31.1796735,104.861905 C30.8835918,104.861905 30.5647347,104.886111 30.2686531,104.95873 C27.6950204,105.418651 25.7363265,107.790873 25.7363265,110.647222 C25.7363265,113.84246 28.1733061,116.43254 31.1796735,116.43254 C34.1860408,116.43254 36.6230204,113.84246 36.6230204,110.647222 C36.6230204,110.405159 36.6230204,110.163095 36.5774694,109.921032 C36.4863673,109.243254 36.3041633,108.613889 36.0308571,108.032937 C35.2564898,106.435317 33.8216327,105.273413 32.0906939,104.95873 Z" id="Path"></path>
            <path d="M46.3481633,41.0539683 C45.2321633,41.0539683 44.2300408,41.4896825 43.4556735,42.215873 C43.0912653,42.5547619 42.7724082,42.9662698 42.5218776,43.4261905 C42.1574694,44.1039683 41.9524898,44.8785714 41.9524898,45.7015873 C41.9524898,48.2674603 43.9111837,50.3492063 46.3253878,50.3492063 C48.7395918,50.3492063 50.6982857,48.2674603 50.6982857,45.7015873 C50.6982857,43.8376984 49.6733878,42.2400794 48.1929796,41.4896825 C47.7602449,41.2718254 47.2591837,41.102381 46.7581224,41.0539683 C46.6214694,41.0539683 46.4620408,41.0539683 46.3026122,41.0539683 L46.3481633,41.0539683 Z" id="Path"></path>
            <path d="M11.6155102,17.2833333 C11.6155102,16.702381 11.5244082,16.1698413 11.3877551,15.6373016 C11.205551,14.9837302 10.9322449,14.3785714 10.5678367,13.8460317 C9.56571429,12.3452381 7.92587755,11.3769841 6.05828571,11.3769841 C2.98359184,11.3769841 0.501061224,14.0154762 0.501061224,17.2833333 C0.501061224,20.5511905 2.98359184,23.1896825 6.05828571,23.1896825 C6.51379592,23.1896825 6.9237551,23.1170635 7.3564898,23.0202381 C7.97142857,22.8507937 8.56359184,22.5845238 9.08742857,22.2456349 C10.6133878,21.2047619 11.6155102,19.3650794 11.6155102,17.3075397 L11.6155102,17.2833333 Z" id="Path"></path>
            <path d="M17.3321633,42.4821429 C17.8787755,41.7075397 18.1976327,40.7392857 18.1976327,39.722619 C18.1976327,39.4079365 18.1748571,39.093254 18.1065306,38.8027778 C18.0154286,38.2702381 17.810449,37.7861111 17.5599184,37.3503968 C16.785551,35.9948413 15.3962449,35.075 13.8019592,35.075 C13.5514286,35.075 13.300898,35.0992063 13.0731429,35.147619 C12.5720816,35.2444444 12.0937959,35.4138889 11.6838367,35.6559524 C10.3400816,36.4547619 9.42906122,37.9797619 9.42906122,39.722619 C9.42906122,42.2884921 11.3877551,44.3702381 13.8019592,44.3702381 C14.7129796,44.3702381 15.5556735,44.0797619 16.2617143,43.5714286 C16.6716735,43.2809524 17.0360816,42.8936508 17.3321633,42.4821429 L17.3321633,42.4821429 Z" id="Path"></path>
            <path d="M54.8662041,21.2047619 C55.2761633,21.4952381 55.7316735,21.6888889 56.2327347,21.834127 C56.5743673,21.9309524 56.916,21.9793651 57.2576327,21.9793651 C59.6718367,21.9793651 61.6305306,19.897619 61.6305306,17.331746 C61.6305306,14.765873 59.6718367,12.684127 57.2576327,12.684127 C54.8434286,12.684127 52.8847347,14.765873 52.8847347,17.331746 C52.8847347,17.8642857 52.9758367,18.372619 53.1352653,18.856746 C53.2946939,19.3650794 53.5452245,19.825 53.8413061,20.2365079 C54.1373878,20.6238095 54.4790204,20.9626984 54.8662041,21.2289683 L54.8662041,21.2047619 Z" id="Path"></path>
            <path d="M29.8814694,24.6420635 C26.3057143,25.2956349 23.5726531,28.5876984 23.5726531,32.581746 C23.5726531,33.1384921 23.6182041,33.6710317 23.7320816,34.1793651 C23.9142857,35.0992063 24.2331429,35.9464286 24.6658776,36.7210317 C25.7818776,38.7059524 27.6722449,40.134127 29.9042449,40.5456349 C30.3142041,40.618254 30.7469388,40.6666667 31.1796735,40.6666667 C31.6124082,40.6666667 32.0451429,40.618254 32.455102,40.5456349 C33.8671837,40.2793651 35.1426122,39.6257937 36.1675102,38.681746 C36.8052245,38.0765873 37.3518367,37.3746032 37.7845714,36.5757937 C38.3995102,35.4138889 38.7639184,34.0583333 38.7639184,32.6059524 C38.7639184,31.6861111 38.6044898,30.7904762 38.3311837,29.9674603 C38.035102,29.0960317 37.6251429,28.2972222 37.1013061,27.5952381 C35.9625306,26.0944444 34.3226939,25.0293651 32.455102,24.6904762 C32.0451429,24.6178571 31.6124082,24.5694444 31.1796735,24.5694444 C30.7469388,24.5694444 30.3142041,24.6178571 29.9042449,24.6904762 L29.8814694,24.6420635 Z" id="Path"></path>
            <path d="M30.4280816,9.22261905 C30.6786122,9.27103175 30.9063673,9.2952381 31.156898,9.2952381 C31.4074286,9.2952381 31.6579592,9.27103175 31.8857143,9.22261905 C33.9582857,8.85952381 35.5297959,6.94722222 35.5297959,4.64761905 C35.5297959,2.08174603 33.571102,1.42108547e-14 31.156898,1.42108547e-14 C28.7426939,1.42108547e-14 26.784,2.08174603 26.784,4.64761905 C26.784,5.01071429 26.829551,5.34960317 26.8978776,5.68849206 C27.0117551,6.22103175 27.1939592,6.70515873 27.4672653,7.14087302 C28.1277551,8.23015873 29.1754286,9.0047619 30.4280816,9.2468254 L30.4280816,9.22261905 Z" id="Path"></path>
        </g>
    </g>
</svg>