<svg xmlns="http://www.w3.org/2000/svg" width="222.334" height="78.116" viewBox="0 0 222.334 78.116"><g transform="translate(-136 -5.942)"><g transform="translate(135.989 5.96)"><path d="M58.6,86.778,56.7,74.46a23.811,23.811,0,0,1-2.908-.095,24.934,24.934,0,0,1-17.587-9.932,31.673,31.673,0,0,1-3.642-6.754,34.49,34.49,0,0,1-1.975-7.368,38.736,38.736,0,0,1,.789-15.3,39.352,39.352,0,0,1,2.589-7.189A37.22,37.22,0,0,1,37.949,21.3a34.413,34.413,0,0,1,5.312-5.561,32.74,32.74,0,0,1,6.582-4.27,26.716,26.716,0,0,1,30.172,4.4c3.607,3.357,5.336,8.069,5,13.651a27.3,27.3,0,0,1-1.737,7.9,1.8,1.8,0,0,1,1.21-.484c1.01-.133,2.7-.351,4.585-3.442l1.382.842c-2.21,3.624-4.48,4.031-5.645,4.189.032.063.067.133.112.211a2.372,2.372,0,0,1,.228.895A13.966,13.966,0,0,1,85.3,41.12a6.614,6.614,0,0,1-.744,3.789c-1.347,2.154-4.971,2.235-7.329,1.9.214.407.488.881.7,1.252a26.993,26.993,0,0,1,1.47,2.807,2.924,2.924,0,0,1,.095,2.807,1.954,1.954,0,0,1-1.7.639,16.36,16.36,0,0,1-.965,5.845,21.319,21.319,0,0,1-5.512,8.1,22.285,22.285,0,0,1-8.487,5.164,21.457,21.457,0,0,1-4.508.961L60.2,86.567ZM61.8,10.3A25.579,25.579,0,0,0,50.554,12.92c-8.624,4.21-15.04,12.405-17.6,22.478-2.579,10.129-.909,20.369,4.561,28.095a23.26,23.26,0,0,0,16.419,9.255,21.982,21.982,0,0,0,2.508.095L49.694,28.89c-.021-.116-.028-.182-.032-.2l1.6-.225.021.137a22.057,22.057,0,0,0,1.979,5.645A43.1,43.1,0,0,0,63.791,47.509a51.712,51.712,0,0,0,5.168,4.14,4.7,4.7,0,0,0,1.547.775,21.175,21.175,0,0,0-.421-3.617,1.626,1.626,0,0,0-.049-.281c-.488-.7-.933-1.375-1.333-2.028a34.476,34.476,0,0,1-4.031-9.178c-.154-.747-.239-1.575.316-2.01a1.406,1.406,0,0,1,1.512.063,8.773,8.773,0,0,1,.867.533c-.46-1.965-.782-3.294-.786-3.319l-.116-.47.351-.323a.849.849,0,0,1,.7-.211c.628.088,1.024.621,3.859,5.2,1,1.617,2.137,3.449,3.108,4.891a10.683,10.683,0,0,0,2.021,2.565c.288.081,1.523-.495,3.186-3.158,3.568-5.691,6.508-17.243-.779-24.029A25.032,25.032,0,0,0,61.8,10.3ZM52.459,36.219l5.613,36.529a20,20,0,0,0,12.121-5.694c4.175-4,6.175-8.392,5.964-13.107a10.661,10.661,0,0,1-4.147-2.94c.179,1.614.046,2.014-.14,2.3a1.488,1.488,0,0,1-1.063.733,4.29,4.29,0,0,1-2.719-1.024,51.784,51.784,0,0,1-5.368-4.287A51.162,51.162,0,0,1,55.7,41.243a39.567,39.567,0,0,1-3.245-5.024ZM77.687,52.635a1.4,1.4,0,0,0,.523,0,3.354,3.354,0,0,0-.372-1.323c-.179-.4-.4-.838-.646-1.277a18.865,18.865,0,0,1,.442,2.2ZM70.457,52.536Zm1.077-4.656a14.1,14.1,0,0,0,4.435,4.235,17.866,17.866,0,0,0-.414-1.887,24.927,24.927,0,0,0-5.413-9.539c-.032-.032-.06-.067-.088-.1.1.463.2.933.305,1.4.509,2.316.905,4.287,1.189,5.887Zm3.859-2.456.032.06v-.021Zm2.744-.147c2,.182,4.315-.063,5.045-1.235.838-1.34.421-4.021.291-4.589a2.807,2.807,0,0,1-.456-1.4,25.088,25.088,0,0,1-1.968,3.859A12.959,12.959,0,0,1,78.593,44.9a2.435,2.435,0,0,1-.453.386Zm-11.869-8.15A15.92,15.92,0,0,0,66.91,39.2a38.654,38.654,0,0,0,2.245,4.873q-.2-1.01-.449-2.105c-.26-1.207-.526-2.4-.779-3.508A15.681,15.681,0,0,0,66.268,37.128Zm17.24,2.4.021.042v-.021ZM69.4,37.591c.5.467,1.007.972,1.5,1.505L70,37.636c-.295-.481-.61-.989-.923-1.488C69.169,36.6,69.282,37.089,69.4,37.591Z" transform="translate(-30.16 -8.68)" fill="#999"/><path d="M174.183,120.636l-1.523-.551a46.2,46.2,0,0,1,3.087-6.49,40.748,40.748,0,0,1,3.789-5.578,24.843,24.843,0,0,1,5.284-4.947l.9,1.344c-3.859,2.586-6.775,6.845-8.553,9.957A45.147,45.147,0,0,0,174.183,120.636Z" transform="translate(-122.659 -69.967)" fill="#999"/></g><g transform="translate(205 31.23)"><path d="M0,27.683V10.137H3.994l.386,2.372a6.137,6.137,0,0,1,2.248-2.032A6.636,6.636,0,0,1,9.866,9.72a6,6,0,0,1,5.764,3.152,6.851,6.851,0,0,1,2.565-2.3,7.464,7.464,0,0,1,3.523-.85,6.715,6.715,0,0,1,5.269,2.055q1.843,2.051,1.839,6.019v9.9H24.3v-9.48a5.884,5.884,0,0,0-.865-3.469,3.072,3.072,0,0,0-2.673-1.205,3.668,3.668,0,0,0-2.951,1.344A5.719,5.719,0,0,0,16.7,18.636v9.055H12.169v-9.48a5.823,5.823,0,0,0-.881-3.469,3.156,3.156,0,0,0-2.727-1.205,3.576,3.576,0,0,0-2.92,1.344,5.719,5.719,0,0,0-1.113,3.747v9.055Z" transform="translate(0 -2.21)" fill="#999"/><path d="M51.264,28.106a9.552,9.552,0,0,1-4.705-1.136,8.233,8.233,0,0,1-3.222-3.183,9.409,9.409,0,0,1-1.167-4.744A10.084,10.084,0,0,1,43.321,14.2,8.354,8.354,0,0,1,46.5,10.892a9.352,9.352,0,0,1,4.79-1.182,9.019,9.019,0,0,1,4.566,1.136,8.172,8.172,0,0,1,3.1,3.1,8.7,8.7,0,0,1,1.113,4.373c0,.263,0,.533-.015.811s-.031.579-.054.881H46.667A4.584,4.584,0,0,0,48.1,23.231,4.479,4.479,0,0,0,51.225,24.4a4.146,4.146,0,0,0,2.318-.618,3.845,3.845,0,0,0,1.4-1.607h4.6A8.408,8.408,0,0,1,57.893,25.2a8.028,8.028,0,0,1-2.828,2.14,8.962,8.962,0,0,1-3.8.78ZM51.3,13.388a4.857,4.857,0,0,0-2.936.935,4.347,4.347,0,0,0-1.63,2.851h8.738A3.806,3.806,0,0,0,54.2,14.415,4.222,4.222,0,0,0,51.3,13.388Z" transform="translate(-9.589 -2.208)" fill="#999"/><path d="M77.255,28.106a10.392,10.392,0,0,1-4.1-.757,6.994,6.994,0,0,1-2.828-2.109,6.038,6.038,0,0,1-1.275-3.114h4.566a2.931,2.931,0,0,0,1.151,1.754,3.826,3.826,0,0,0,2.426.726,3.262,3.262,0,0,0,2.179-.6,1.8,1.8,0,0,0,.688-1.383,1.518,1.518,0,0,0-.989-1.538,18.193,18.193,0,0,0-2.758-.8c-.757-.162-1.522-.363-2.3-.6a10.068,10.068,0,0,1-2.14-.9,4.724,4.724,0,0,1-1.576-1.414,3.659,3.659,0,0,1-.6-2.14A4.975,4.975,0,0,1,71.546,11.3,7.778,7.778,0,0,1,76.761,9.71a7.851,7.851,0,0,1,4.968,1.453,5.873,5.873,0,0,1,2.21,3.994h-4.28c-.263-1.3-1.236-1.947-2.936-1.947a3.3,3.3,0,0,0-1.962.494,1.467,1.467,0,0,0-.688,1.236c0,.494.34.935,1.028,1.236a15.172,15.172,0,0,0,2.727.85c1.228.286,2.356.595,3.376.935a5.673,5.673,0,0,1,2.457,1.522,4.15,4.15,0,0,1,.919,2.882,4.954,4.954,0,0,1-.85,2.936,5.887,5.887,0,0,1-2.55,2.055,9.589,9.589,0,0,1-3.925.742Z" transform="translate(-15.701 -2.208)" fill="#999"/><path d="M94.328,25.473V0h4.528V10.616a6.267,6.267,0,0,1,2.387-2.279,7,7,0,0,1,3.446-.834,6.346,6.346,0,0,1,5.045,2.055q1.785,2.051,1.785,6.019v9.9H107.03V16a5.71,5.71,0,0,0-.9-3.469,3.331,3.331,0,0,0-2.851-1.205,4.111,4.111,0,0,0-3.168,1.344,5.3,5.3,0,0,0-1.259,3.747v9.055H94.32Z" transform="translate(-21.447)" fill="#999"/><path d="M128.063,28.108a8.269,8.269,0,0,1-3.716-.726,5.033,5.033,0,0,1-2.156-1.932,5.139,5.139,0,0,1-.711-2.65,4.819,4.819,0,0,1,1.908-3.964q1.912-1.518,5.733-1.522h4.458V16.89a3.225,3.225,0,0,0-1.028-2.65,3.891,3.891,0,0,0-2.55-.85,4.325,4.325,0,0,0-2.4.657,2.837,2.837,0,0,0-1.275,1.932H121.9a6.147,6.147,0,0,1,1.29-3.322,7.236,7.236,0,0,1,2.882-2.179,9.907,9.907,0,0,1,3.964-.757,8.709,8.709,0,0,1,5.911,1.877,6.662,6.662,0,0,1,2.156,5.308V27.7h-3.855l-.425-2.828a6.147,6.147,0,0,1-5.771,3.253Zm1.028-3.539a3.763,3.763,0,0,0,3.029-1.275,6.171,6.171,0,0,0,1.36-3.152h-3.855a3.983,3.983,0,0,0-2.581.657,2.025,2.025,0,0,0-.78,1.607,1.855,1.855,0,0,0,.78,1.592,3.408,3.408,0,0,0,2.055.564Z" transform="translate(-27.623 -2.21)" fill="#999"/><path d="M157.013,28.108a9.409,9.409,0,0,1-4.744-1.167,8.5,8.5,0,0,1-3.237-3.253,9.515,9.515,0,0,1-1.182-4.775,9.515,9.515,0,0,1,1.182-4.775,8.5,8.5,0,0,1,3.237-3.253,9.409,9.409,0,0,1,4.744-1.167,9.093,9.093,0,0,1,5.663,1.754,7.833,7.833,0,0,1,2.936,4.829h-4.775a3.524,3.524,0,0,0-1.4-2,4.382,4.382,0,0,0-5.64.688,5.565,5.565,0,0,0-1.313,3.925,5.53,5.53,0,0,0,1.313,3.925,4.174,4.174,0,0,0,3.183,1.414,4.271,4.271,0,0,0,2.457-.7,3.438,3.438,0,0,0,1.4-2.017h4.775a8.033,8.033,0,0,1-2.936,4.775,8.893,8.893,0,0,1-5.663,1.808Z" transform="translate(-33.619 -2.21)" fill="#999"/><path d="M176.06,25.473V0h4.528V15.035l6.227-7.108h5.377l-7.178,8,8.352,9.55H187.7L180.6,16.665v8.808h-4.528Z" transform="translate(-40.033)" fill="#999"/></g></g></svg>