<?xml version="1.0" encoding="UTF-8"?><svg id="a" xmlns="http://www.w3.org/2000/svg" viewBox="0 0 14.74 19.93" width="88" height="120"><defs><style>.b{fill:#4c4c4d;stroke-width:0px;}</style></defs><path class="b" d="m14.47,4.71c-.1-.31-.28-.69-.52-1.08-.27-.44-.61-.88-.99-1.28-.66-.71-1.76-1.66-3.24-2.1-1-.3-2.03-.33-3.08-.09-1.19.27-2.39.9-3.58,1.87-.74.6-1.35,1.28-1.83,2.03-.45.7-.78,1.47-.98,2.28-.37,1.47-.33,3.09.12,4.69.36,1.3.99,2.55,1.78,3.58L.21,19.76l.47.18,1.84-4.88s.04.04.05.06c.5.55,1.03,1,1.58,1.34.58.35,1.16.57,1.74.65,1.02.14,1.96.07,2.78-.21.66-.22,1.25-.58,1.75-1.07.48-.47.78-.96.95-1.3l.29.44c.17.27.53.35.81.2l.06-.04.41-.76.54.36.28-.42-.57-.38c-.11-.07-.24-.1-.37-.06-.13.03-.24.12-.3.23l-.34.65s-.07-.02-.09-.05l-.84-1.27c.31-.23.64-.52.95-.85.42-.45.83-1,1.18-1.57.38-.62.69-1.27.92-1.93.25-.73.4-1.45.44-2.15.05-.78-.04-1.52-.26-2.22Zm-3.4,9.23s-.26.81-1.01,1.54c-1.01.99-2.4,1.37-4.1,1.14-1-.14-2.07-.79-3.01-1.83-.08-.09-.15-.17-.22-.26l2.67-7.06c-.04.34-.07.69-.1,1.06-.08,1.08-.09,2.04-.03,2.86.09,1.04.3,1.85.63,2.42.08.14.22.24.38.28.28.07.57-.01.86-.24.23-.18.46-.45.7-.83.25-.39.5-.89.77-1.49.02.6.1,1.16.25,1.67.15.54.49.73.74.79.08.02.17.03.26.03.29,0,.63-.1.99-.31.13-.07.26-.16.39-.25l-.16.5Zm.75-1.7c-.42.44-.84.8-1.23,1.01-.36.2-.67.28-.89.23-.07-.02-.27-.07-.38-.44-.28-.98-.27-2.05-.16-2.98.58-1.62,1-3.2,1.06-3.44.03-.08.04-.17.03-.24-.02-.24-.18-.29-.23-.3-.06-.01-.18-.01-.29.12-.04.04-.07.1-.11.19-.08.17-.48,1.15-.76,2.47-.08.37-.14.74-.18,1.09-.04.1-.07.2-.11.3-.4,1.07-.79,1.9-1.16,2.48-.39.62-.76.92-1.03.86-.03,0-.05-.02-.06-.05-.53-.9-.72-2.62-.53-4.98.14-1.8.45-3.35.45-3.37l-.48-.14-3.4,9c-.67-.93-1.21-2.02-1.51-3.16-.9-3.44.02-6.53,2.52-8.48,1.6-1.25,3.13-1.92,4.64-1.92.53,0,1.05.08,1.56.23,1.37.41,2.4,1.3,3.02,1.96.8.86,1.26,1.71,1.4,2.17.82,2.61-.5,5.59-2.17,7.38Z"/><path class="b" d="m13.42,15.76s-.09-.03-.14-.02c-.07.02-.13.04-.2.05-.04,0-.08,0-.11,0-.05,0-.09.02-.12.05-.02.02-.03.03-.04.06-.01.02-.02.04-.02.07,0,.05.02.09.05.12.03.03.08.05.12.05.14,0,.28-.03.41-.07.04-.01.08-.04.1-.08.01-.02.02-.04.02-.07,0-.02,0-.05,0-.07-.01-.04-.04-.08-.08-.1Z"/><path class="b" d="m14.49,14.96c-.03.06-.07.12-.11.17,0,0,0,0-.01.01,0,.01-.02.02-.03.03-.02.02-.03.03-.05.04-.02.01-.04.02-.07.03,0,0,0,0-.01,0-.03,0-.05.02-.07.05-.02.03-.03.08-.03.12,0,.09.05.18.1.17.17-.02.31-.18.42-.39.02-.03.03-.07.03-.12,0-.04-.01-.09-.03-.12-.04-.06-.11-.07-.15,0Z"/></svg>
