<?xml version="1.0" encoding="UTF-8"?>
<svg id="Layer_1" data-name="Layer 1" xmlns="http://www.w3.org/2000/svg" viewBox="0 0 178.57 17.74">
  <defs>
    <style>
      .cls-1 {
        fill: #666;
      }

      .cls-1, .cls-2 {
        stroke-width: 0px;
      }

      .cls-2 {
        fill: #606060;
      }

      .cls-3 {
        fill: #738678;
        font-family: Inter18pt-Italic, 'Inter 18pt';
        font-size: 8.08px;
        font-style: italic;
        letter-spacing: -.08em;
      }
    </style>
  </defs>
  <g>
    <path class="cls-1" d="m120.75,14.81c-1.02,0-1.92-.3-2.7-.91s-1.4-1.47-1.85-2.58-.67-2.41-.67-3.9.22-2.8.67-3.91,1.06-1.97,1.85-2.58,1.68-.92,2.7-.92,1.91.31,2.69.92,1.39,1.47,1.84,2.58.67,2.41.67,3.91-.22,2.79-.67,3.9-1.06,1.97-1.84,2.58-1.68.91-2.69.91Zm0-1.27c.78,0,1.47-.24,2.09-.73s1.11-1.19,1.46-2.11.54-2.01.54-3.29-.18-2.39-.54-3.31-.85-1.62-1.46-2.11-1.31-.73-2.09-.73-1.48.24-2.1.73-1.11,1.19-1.47,2.11-.54,2.02-.54,3.31.18,2.37.54,3.29.85,1.61,1.46,2.1,1.32.74,2.11.74Z"/>
    <path class="cls-1" d="m129.96,7.05v.82h-3.5v-.82h3.5Zm-2.25,7.76V5.85c0-.41.08-.75.23-1.03s.35-.49.6-.64.52-.22.83-.22c.19,0,.35.02.48.05s.23.06.3.09l-.17.82c-.06-.02-.13-.04-.22-.06s-.2-.03-.32-.03c-.31,0-.55.1-.71.31s-.24.5-.24.9v8.78h-.77Z"/>
    <path class="cls-1" d="m133.26,7.05v.82h-3.5v-.82h3.5Zm-2.25,7.76V5.85c0-.41.07-.75.22-1.03s.35-.49.6-.64.52-.22.83-.22c.19,0,.35.02.48.05s.24.06.31.09l-.17.82c-.06-.02-.13-.04-.23-.06s-.2-.03-.32-.03c-.31,0-.55.1-.71.31s-.24.5-.24.9v8.78h-.77Z"/>
    <path class="cls-1" d="m134.69,5.56c-.16,0-.29-.07-.4-.2s-.17-.29-.17-.47.06-.34.17-.47.25-.19.4-.19.29.06.4.19.17.28.17.47-.06.34-.17.47-.25.2-.4.2Zm-.39,9.25v-7.76h.78v7.76h-.78Z"/>
    <path class="cls-1" d="m139.21,14.81c-.56,0-1.05-.17-1.49-.51s-.77-.81-1.01-1.41-.37-1.3-.37-2.08.12-1.49.37-2.09.58-1.08,1.01-1.42.93-.51,1.49-.51c.33,0,.64.06.92.18s.52.28.74.48.39.43.54.68.25.52.31.79l-.75.22c-.04-.17-.1-.34-.2-.52s-.22-.34-.37-.48-.32-.26-.52-.35-.42-.14-.67-.14c-.43,0-.81.14-1.11.43s-.55.66-.71,1.14c-.16.48-.24,1.01-.24,1.61s.08,1.12.24,1.59.4.85.71,1.13.68.42,1.11.42c.25,0,.48-.04.68-.14s.38-.21.52-.36.27-.31.37-.49.16-.36.2-.53l.75.22c-.06.27-.16.54-.3.79s-.33.49-.55.7-.47.37-.75.49-.59.18-.92.18Z"/>
    <path class="cls-1" d="m143.36,5.56c-.16,0-.29-.07-.4-.2s-.17-.29-.17-.47.06-.34.17-.47.25-.19.4-.19.29.06.4.19.17.28.17.47-.06.34-.17.47-.25.2-.4.2Zm-.39,9.25v-7.76h.78v7.76h-.78Z"/>
    <path class="cls-1" d="m147.1,14.81c-.39,0-.75-.09-1.07-.27s-.58-.44-.77-.79-.29-.78-.29-1.28c0-.39.06-.71.18-.98s.3-.48.52-.64.49-.3.79-.4.64-.18,1.01-.23c.37-.06.67-.1.92-.14s.44-.11.57-.2.2-.23.2-.43v-.17c0-.35-.06-.64-.18-.89s-.29-.44-.52-.58-.5-.2-.83-.2-.58.06-.82.18-.43.28-.58.47-.26.41-.32.65l-.76-.24c.12-.44.3-.79.55-1.07s.54-.49.87-.63.68-.21,1.05-.21c.27,0,.55.04.82.13s.53.23.75.43.41.46.54.79.21.74.21,1.22v5.29h-.77v-1.24h-.05c-.09.24-.22.47-.4.68s-.4.39-.67.52-.58.2-.94.2Zm.12-.84c.4,0,.74-.1,1.03-.31s.51-.48.67-.84.23-.74.23-1.16v-1.1c-.05.06-.14.12-.27.17s-.27.1-.44.14-.33.07-.5.1-.33.05-.48.08c-.36.05-.66.14-.92.25s-.45.27-.59.47-.2.45-.2.76.06.56.19.78.3.38.52.5.47.17.75.17Z"/>
    <path class="cls-1" d="m152.32,4.34v10.47h-.78V4.34h.78Z"/>
    <path class="cls-1" d="m157.06,14.81V4.34h2.96c.56,0,1.04.12,1.42.35s.68.56.87.97.3.88.3,1.41c0,.43-.06.8-.18,1.11s-.29.56-.5.76-.45.34-.72.44v.06c.29.03.56.16.83.37.27.21.49.51.66.88s.26.82.26,1.34-.1,1.02-.3,1.44-.51.75-.92.99-.93.36-1.55.36h-3.12Zm.82-5.74h2.22c.35,0,.65-.09.9-.26s.46-.4.6-.7.22-.63.22-1.01c0-.56-.16-1.02-.46-1.36s-.76-.52-1.34-.52h-2.14v3.84Zm0,4.86h2.28c.67,0,1.17-.18,1.5-.53s.5-.81.5-1.37c0-.4-.08-.76-.24-1.08s-.39-.57-.68-.75-.63-.28-1.03-.28h-2.32v4.01Z"/>
    <path class="cls-1" d="m165.1,4.34v10.47h-.78V4.34h.78Z"/>
    <path class="cls-1" d="m169.23,14.81c-.56,0-1.05-.17-1.49-.51s-.77-.81-1.01-1.42-.36-1.3-.36-2.08.12-1.5.36-2.1.58-1.08,1.01-1.42.93-.51,1.49-.51,1.07.17,1.49.51.77.81,1.01,1.42.36,1.31.36,2.1-.12,1.48-.36,2.08-.58,1.08-1.01,1.42-.93.51-1.49.51Zm0-.85c.44,0,.82-.14,1.13-.42s.54-.67.71-1.14.24-1.01.24-1.59-.08-1.12-.24-1.61c-.16-.48-.4-.86-.71-1.15s-.69-.43-1.12-.43-.81.14-1.12.43-.54.67-.71,1.15c-.16.48-.24,1.01-.24,1.6s.08,1.12.24,1.59.4.86.71,1.14.68.42,1.12.42Z"/>
    <path class="cls-1" d="m175.88,17.74c-.45,0-.84-.07-1.19-.22s-.63-.35-.86-.61-.4-.56-.51-.91l.68-.37c.09.22.21.44.36.63s.36.35.61.47.55.18.9.18c.58,0,1.05-.18,1.39-.53s.52-.89.52-1.61v-1.68h-.06c-.1.26-.23.51-.41.74s-.39.42-.65.57-.58.22-.96.22c-.52,0-.98-.15-1.38-.47s-.72-.76-.95-1.33-.34-1.26-.34-2.06.11-1.49.34-2.08.54-1.06.95-1.4.87-.5,1.4-.5c.38,0,.7.08.96.24s.49.36.66.61.31.5.4.76h.06v-1.49h.76v7.91c0,.67-.12,1.22-.35,1.66s-.55.76-.96.97-.87.31-1.38.31Zm-.05-3.97c.41,0,.77-.12,1.06-.37s.52-.59.68-1.04.24-.99.24-1.61-.08-1.15-.23-1.61c-.16-.47-.38-.83-.68-1.1s-.65-.4-1.07-.4-.78.13-1.08.4-.53.64-.69,1.1c-.16.47-.23,1-.23,1.6s.08,1.13.24,1.59.39.81.68,1.06.66.37,1.08.37Z"/>
  </g>
  <g>
    <path class="cls-2" d="m10.38,15.11V0h4.56l2.37,6.96c.1.32.21.74.34,1.24s.26,1.04.4,1.62.26,1.13.37,1.67.21,1,.29,1.39h-.63c.08-.39.18-.85.29-1.38s.24-1.09.37-1.67.26-1.12.39-1.63.24-.92.35-1.25L21.83,0h4.57v15.11h-3v-7.14c0-.33,0-.74.01-1.23s.02-1.01.04-1.57.03-1.13.04-1.7.02-1.11.03-1.62h.23c-.13.55-.27,1.13-.43,1.71s-.31,1.16-.46,1.72-.3,1.07-.43,1.53-.25.85-.35,1.15l-2.43,7.14h-2.51l-2.46-7.14c-.1-.3-.22-.69-.36-1.15s-.28-.97-.44-1.52-.31-1.13-.47-1.71-.31-1.17-.45-1.73h.27c0,.49.02,1.01.03,1.58l.04,1.7c.01.57.03,1.1.04,1.59s.02.9.02,1.24v7.14h-2.98Z"/>
    <path class="cls-2" d="m33.18,15.34c-1.11,0-2.06-.24-2.86-.71s-1.42-1.14-1.85-2.01-.65-1.88-.65-3.05.22-2.17.65-3.04,1.04-1.55,1.83-2.04,1.7-.74,2.76-.74c.73,0,1.4.12,2.02.37s1.17.6,1.63,1.08.83,1.07,1.09,1.79.39,1.54.39,2.47v.84h-9.2v-1.91h7.77l-1.36.5c0-.58-.09-1.09-.26-1.51s-.44-.76-.78-.99-.77-.35-1.27-.35-.93.12-1.29.35-.62.56-.81.97-.28.89-.28,1.42v1.34c0,.63.1,1.16.31,1.6s.51.77.89,1,.83.34,1.34.34c.35,0,.66-.05.95-.16s.53-.26.73-.46.35-.44.46-.74l2.66.4c-.17.65-.48,1.22-.92,1.7s-.99.86-1.66,1.13-1.42.4-2.27.4Z"/>
    <path class="cls-2" d="m43.83,15.35c-.88,0-1.67-.13-2.35-.4s-1.24-.65-1.67-1.16-.7-1.12-.81-1.83l2.76-.39c.12.51.36.9.72,1.17s.82.4,1.41.4c.56,0,.99-.11,1.32-.33s.48-.5.48-.84c0-.29-.12-.53-.35-.72s-.58-.33-1.05-.43l-1.87-.39c-1.05-.22-1.83-.6-2.36-1.14s-.79-1.22-.79-2.07c0-.71.19-1.33.56-1.85s.91-.92,1.59-1.21,1.48-.43,2.4-.43,1.64.13,2.28.39,1.16.62,1.55,1.1.64,1.03.74,1.67l-2.62.38c-.09-.4-.3-.73-.61-.98s-.74-.38-1.27-.38c-.49,0-.89.11-1.21.32s-.48.49-.48.83c0,.28.11.52.32.72s.57.34,1.06.44l1.96.41c1.06.22,1.85.57,2.36,1.08s.77,1.15.77,1.96c0,.74-.21,1.38-.62,1.93s-.98.98-1.71,1.29-1.57.46-2.52.46Z"/>
    <path class="cls-2" d="m52.89,8.68v6.43h-2.92V0h2.89v6.73h-.3c.29-.95.74-1.68,1.33-2.2s1.35-.78,2.28-.78c.75,0,1.41.17,1.97.51s1,.82,1.31,1.46.47,1.4.47,2.29v7.1h-2.93v-6.56c0-.71-.17-1.26-.52-1.66s-.83-.59-1.45-.59c-.41,0-.78.09-1.09.28s-.57.45-.75.81-.27.78-.27,1.3Z"/>
    <path class="cls-2" d="m64.79,15.33c-.69,0-1.32-.13-1.86-.38s-.98-.62-1.3-1.12-.47-1.11-.47-1.85c0-.63.11-1.15.33-1.57s.53-.76.91-1.01.83-.45,1.32-.58,1.01-.22,1.56-.28c.63-.07,1.14-.13,1.53-.19s.67-.15.84-.27.26-.3.26-.55v-.05c0-.31-.07-.58-.2-.8s-.33-.39-.58-.51-.57-.18-.93-.18-.7.06-.98.18-.5.28-.68.48-.3.42-.37.67l-2.7-.35c.15-.68.44-1.25.86-1.73s.97-.85,1.63-1.1,1.41-.38,2.26-.38c.61,0,1.2.07,1.75.22s1.05.38,1.48.69.77.7,1.02,1.18.37,1.05.37,1.71v7.56h-2.8v-1.56h-.09c-.18.35-.41.66-.7.93s-.64.48-1.05.62-.88.22-1.42.22Zm.82-2.12c.46,0,.87-.09,1.22-.28s.62-.44.81-.76.29-.68.29-1.08v-1.19c-.09.05-.22.11-.38.16s-.35.1-.56.14-.42.08-.63.11-.41.06-.58.09c-.35.05-.67.14-.94.26s-.49.28-.64.48-.23.45-.23.75.07.52.21.72.33.34.58.45.53.15.85.15Z"/>
    <path class="cls-2" d="m77.51,15.34c-1.09,0-2.03-.24-2.83-.73-.8-.48-1.41-1.16-1.85-2.03s-.65-1.88-.65-3.03.22-2.17.65-3.04,1.05-1.55,1.85-2.03,1.74-.73,2.83-.73c.66,0,1.27.09,1.82.27s1.04.44,1.47.78.77.75,1.05,1.22.45,1.01.54,1.61l-2.75.41c-.06-.29-.15-.55-.26-.78s-.26-.43-.44-.59-.38-.29-.61-.38-.49-.13-.78-.13c-.52,0-.95.14-1.3.43s-.62.68-.8,1.19-.27,1.1-.27,1.78.09,1.26.27,1.77.45.91.8,1.2.78.43,1.3.43c.29,0,.55-.05.78-.14s.44-.22.62-.39.33-.37.45-.61.21-.51.26-.82l2.75.42c-.09.6-.26,1.14-.53,1.62s-.62.89-1.05,1.24-.92.61-1.48.8-1.17.27-1.83.27Z"/>
    <path class="cls-2" d="m83.72,15.11V0h2.92v15.11h-2.92Zm2.65-3.27v-3.63h.42l3.59-4.3h3.41l-4.73,5.62h-.69l-2,2.31Zm4.18,3.27l-3.29-4.9,1.95-2.15,4.78,7.05h-3.44Z"/>
    <path class="cls-2" d="m95.68,15.11V0h4.56l2.37,6.96c.1.32.21.74.34,1.24s.26,1.04.4,1.62.26,1.13.37,1.67.21,1,.29,1.39h-.63c.08-.39.18-.85.29-1.38s.24-1.09.37-1.67c.13-.58.26-1.12.39-1.63s.24-.92.35-1.25L107.13,0h4.57v15.11h-3v-7.14c0-.33,0-.74.01-1.23s.02-1.01.04-1.57.03-1.13.04-1.7.02-1.11.03-1.62h.23c-.13.55-.27,1.13-.43,1.71s-.31,1.16-.46,1.72-.3,1.07-.43,1.53-.25.85-.35,1.15l-2.43,7.14h-2.51l-2.46-7.14c-.1-.3-.22-.69-.36-1.15s-.28-.97-.44-1.52-.31-1.13-.47-1.71-.31-1.17-.45-1.73h.27c0,.49.02,1.01.03,1.58l.04,1.7c.01.57.03,1.1.04,1.59s.02.9.02,1.24v7.14h-2.98Z"/>
  </g>
  <text class="cls-3" transform="translate(0 9.9)"><tspan x="0" y="0">the</tspan></text>
</svg>