<svg xmlns="http://www.w3.org/2000/svg" xmlns:xlink="http://www.w3.org/1999/xlink" width="764" height="646" viewBox="0 0 764 646"><defs><clipPath id="a"><path d="M0,0H728a36,36,0,0,1,36,36V610a36,36,0,0,1-36,36H0a0,0,0,0,1,0,0V0A0,0,0,0,1,0,0Z" transform="translate(69 74)" fill="#fff" stroke="#707070" stroke-width="1"/></clipPath></defs><g transform="translate(-69 -74)" clip-path="url(#a)"><g transform="translate(-116.639 30)"><path d="M949.639,0H0V710.043H949.639V0Z" fill="rgba(236,239,236,0)" fill-rule="evenodd"/><path d="M449.245,2155.96s45.994,5.2,67.738,8.26c79.019,11.127,145.129,26.686,183.94,45.835,23.673,11.68,36.128,24.453,27.683,40.274-20.933,38.743-114.2,68.969-229.961,95.795C340,2382.888,139.953,2403.5,6.4,2414.059c-2.262.179-6.38.176-6.38.176v87.286H43.774s7.854-1.393,11.586-2.021q8.576-1.446,17.432-2.969C204.654,2473.854,380.165,2438.566,520,2392.3c125.284-41.448,221.337-88.2,238.637-133.618,7.741-20.01,2.118-35.589-18.953-49.634-24.37-16.245-69.522-27.7-127.552-36.236-46.969-6.912-162.885-16.853-162.885-16.853h0Z" transform="translate(-0.017 -1791.478)" fill="#fff" fill-rule="evenodd"/><path d="M1173.417,3705.918l-1.547,4.675,3.124,2.276,9.836-2.725.34-1.719,1.182-.558,1.719.73,17.354-2.316,10.5-1.5,1.818.605,1.6-.154,2.108-1.6-.72-.448-.784.088-.817-.115.02-.261-4.061-.079,8.073-1.609-.213-.443,19.509-4.4,15.146-1.713,13.726-3.1s4.4-2.352,3.194-2.72-10.4.51-10.4.51l-38.381,5.67-4.316.025-.832-.82-2.832-.284.118-.262,1.645.162,2.091-.806-.542-1.229-2.11.387-1.241.277-.064-.315-16.859,4.4-12.224,4.245-1.745,2.531-4.09,1.732-.874.184-3.363-1.312-5.085,2h0Z" transform="translate(-973.072 -3065.127)" fill="#ecefec" fill-rule="evenodd"/><path d="M1572.969,3123.192l10.893-1.242-.294,14-2.434.5-.8,1.371,5.051,1.228,3.435,18.843,8.916,10.693,2.553,1.783.47,1.721-2.989,2.581-1.55-.661-.2-.849-.742-.837-.663.079-10.453-11.492.859,4.608.308,12.226-1.261-.127-3.805,14.94,6.243,18.911,5.259-.794,2.005,1.832-10.827,4.658s-.477-1.589-.827-2.351c-1.248-2.72-6.662-13.968-6.662-13.968l-4.441,17.939,6.783,2.49.673,1.983-13.415,1.183-.423-1.626-.915-.239,7-40.734-2.279-4.563-2.573-.7.34-16.75-2.612,13.822-.612.183,1.313,1.7-.95,2.387-3.469-.3-.147-2.314.044-1.371h-.847l2.21-18.779,4.334-13.854,5.593-2.4,2.252-4.7,0-.964-1.927-4.54,1.587-5.5h0Z" transform="translate(-1294.523 -2594.16)" fill="#505e52" fill-rule="evenodd"/><path d="M4544.251,578.5a37.3,37.3,0,1,1-37.3,37.3,37.32,37.32,0,0,1,37.3-37.3Z" transform="translate(-3742.1 -480.7)" fill="#fff" fill-rule="evenodd"/></g></g></svg>