<svg xmlns="http://www.w3.org/2000/svg" width="466.233" height="268.438" viewBox="0 0 466.233 268.438"><g transform="translate(0 0)"><g transform="translate(272.201)"><path d="M1140.95,447.54h70.984a8.384,8.384,0,0,1,8.383,8.383V489.28a8.384,8.384,0,0,1-8.383,8.383h-51.853l-9.558,8.734v-8.734h-9.57a8.384,8.384,0,0,1-8.383-8.383V455.923a8.384,8.384,0,0,1,8.383-8.383Z" transform="translate(-1132.57 -447.54)" fill="#7b8f7e"/><g transform="translate(10.467 10.621)"><path d="M1366.171,604.086a1.846,1.846,0,1,1-1.846-1.846A1.846,1.846,0,0,1,1366.171,604.086Z" transform="translate(-1317.69 -575.68)" fill="#ecefec"/><circle cx="1.846" cy="1.846" r="1.846" transform="translate(52.444 26.56)" fill="#ecefec"/><circle cx="1.846" cy="1.846" r="1.846" transform="translate(60.097 26.56)" fill="#ecefec"/><path d="M1300.919,495.436H1258.4a1.853,1.853,0,1,1,0-3.706h42.516a1.853,1.853,0,1,1,0,3.706Z" transform="translate(-1237.219 -491.73)" fill="#ecefec"/><path d="M1239.82,532.276h-61.847a1.853,1.853,0,0,1,0-3.706h61.847a1.853,1.853,0,0,1,0,3.706Z" transform="translate(-1176.12 -519.716)" fill="#ecefec"/><path d="M1239.82,569.116h-61.847a1.853,1.853,0,0,1,0-3.706h61.847a1.853,1.853,0,0,1,0,3.706Z" transform="translate(-1176.12 -547.702)" fill="#ecefec"/><path d="M1215.457,605.966h-37.484a1.853,1.853,0,0,1,0-3.706h37.484a1.853,1.853,0,1,1,0,3.706Z" transform="translate(-1176.12 -575.695)" fill="#ecefec"/></g></g><ellipse cx="170.963" cy="10.508" rx="170.963" ry="10.508" transform="translate(108.414 247.423)" fill="#bfbfbf"/><ellipse cx="71.025" cy="6.364" rx="71.025" ry="6.364" transform="translate(14.506 251.566)" fill="#bfbfbf"/><g transform="translate(0 22.88)"><path d="M411.333,876.1a2.78,2.78,0,0,1,0-2.235c.519-2,4.542-2.9,6.58-6.83,1.3-2.5,5.708-1.69,8.321-4.1,1.858-1.714-.416-2.562,4.223-5.34,7.052-4.223,6-8.7,5.713-8.816-.466-.183-.387,1.163-.925,1.846-2.516,3.2-19.186-2.564-33.27,6.869-6.129,4.1-10.38,9.772-11.505,16.867-.824,5.2.892,7.825,2.737,7.34,2.182-.577.577.885,1.947,2.834,5.689,8.092,17.6-4.55,16.177-8.434Z" transform="translate(-296.463 -775.211)" fill="#7ca417"/><path d="M99.966,717.312c6.874,6.6,11.974,1.428,16.372-3.848,1.06-1.271,4.122,3.269,7.833-1.528,5.835-7.542-1.779-18.035-9.717-41.718-.976-2.911-9.9-23.851-15.274-32.876-2.637-4.425-5.585-7.506-8.1-8.8-6.381-3.288-10.861-1.216-11.332-3.934-.344-1.985,1.269-2.447.288-2.865-1.255-.533-4.264,7.8-3.648,16.108.481,6.523,2.807,8.943,5.309,16.146,2.447,7.047,1.935,9.664,3.588,21.159C88.425,696.955,89.989,707.727,99.966,717.312Z" transform="translate(-57.969 -602.737)" fill="#346e00"/><path d="M304.382,978.591c.562-5.773,1.161-11.553,1.918-17.319s1.661-11.515,2.8-17.223,2.495-11.373,4.158-16.954a133,133,0,0,1,6.025-16.386,96.325,96.325,0,0,1,8.486-15.252,72.031,72.031,0,0,1,11.512-13.089,61.18,61.18,0,0,1,14.516-9.575c.661-.3,1.322-.6,1.985-.9l1.995-.863c1.327-.582,2.644-1.182,3.93-1.846a29.844,29.844,0,0,0,3.713-2.24,15.188,15.188,0,0,0,3.158-2.958,15.2,15.2,0,0,1-3.12,3.014,30.023,30.023,0,0,1-3.692,2.3c-1.279.687-2.591,1.31-3.91,1.913l-1.983.894c-.659.3-1.31.615-1.964.923a60.833,60.833,0,0,0-14.274,9.734,71.258,71.258,0,0,0-11.2,13.142,95.361,95.361,0,0,0-8.164,15.233,131.784,131.784,0,0,0-5.715,16.329c-1.562,5.557-2.824,11.2-3.862,16.879s-1.846,11.407-2.509,17.148-1.168,11.505-1.639,17.28l-2.165-.195Z" transform="translate(-231.226 -786.781)" fill="#346e00"/><path d="M37.937,699.166c-3.98,6.177-10.226,7.539-10.339,7.347-.137-.238,5.542-2.382,8.655-8.558a20.251,20.251,0,0,0-9.51-3.185c-7.016-.567-4.446-2.194-10.229-4.139-7.585-2.55-10.683-2.74-12.344-2.211-2.685.858-2.776-1.43-3.206-1.007-.281.274-2.562,5.72,1.091,9.472,1.928,1.98,4.254,1.149,6.879,4.057,1.4,1.553,1.281,2.589,2.293,4.586,2.187,4.314,7.388,3.636,8.111,7.407,4.3,22.361,12.267,23.748,19.455,23.851,3.961.058,3.334-3.36,5.811-2.886C51.091,735.142,51.151,709.71,37.937,699.166Z" transform="translate(-0.003 -652.603)" fill="#9fbc50"/><path d="M292.138,593.517c5.8,4.511,12.147,3.733,12.188,3.514.05-.269-6.018-.416-11-5.215a20.238,20.238,0,0,1,7.922-6.15c6.434-2.858,3.47-3.54,8.285-7.29,6.314-4.915,9.176-6.121,10.919-6.169,2.817-.079,2.146-2.266,2.694-2.012.356.166,4.309,4.55,2.1,9.3-1.166,2.507-3.636,2.49-5.148,6.1-.808,1.927-.351,2.867-.646,5.086-.637,4.792-5.768,5.876-5.206,9.674,3.341,22.525-3.72,26.469-10.472,28.944-3.718,1.363-4.256-2.069-6.439-.8-5.71,3.319-14.18-20.662-5.2-34.984Z" transform="translate(-218.946 -563.581)" fill="#346e00"/><path d="M200.679,557.221c-7.025-5.523-10.147-10.916-14.637-11.464-2.468-.3-2.209.75-4.586-1.057-1.094-.832-1.968-2.132-2.293-1.94-.3.18.5,1.305.353,2.646-.233,2.093-2.572,2.711-4.057,4.586a7.008,7.008,0,0,0-1.327,4.612c4.329,1.9,11.849,1.2,10.813,1.656a38.33,38.33,0,0,1-10.722,1.509c.043,6.621-2.781,8.479-4.586,16.206-1.377,5.9-.659,8.8-.529,16.93.392,24.755-5.766,30.232-.353,40.209.6,1.11,7.849,9.811,14.384,9.876,3.925.038,5.086-3.072,10.229-3.35,5.021-.272,6.537,2.55,11.64,3,0,0,3.451.514,10.128-3.879,16.86-11.089,3.7-65.25-14.461-79.536Z" transform="translate(-126.499 -542.74)" fill="#7ca417"/><path d="M344.85,746.083c-.459-2.737-1.843-3.831-1.365-6.333.171-.894.546-1.8.248-1.988-.4-.257-1.617,1.014-1.988,1.365-3.117,2.968-10.2,1.9-11.673,1.738-8.929-.961-20.621,9.005-26.077,15.4-2.528,2.961-12.594,14.75-9.686,27.444.108.471.875,9.633,7.326,10.556,4.091.587,5.85-4.122,10.337-2.949,2.944.769,4.177,2.819,6.924,3.074,3.656.337,6.85-4.131,7.575-5.215,2.617-3.913,1.2-5.8,3.6-12.791a29.693,29.693,0,0,1,4.345-9.066c2.093-2.8,3.857-3.889,4.941-5.343a12.624,12.624,0,0,1-7.705-.425c-2-.661-3.732-2.06-3.528-2.3.173-.2,2.427,1.245,5.352,1.036,3.961-.284,5.879-1.524,7.013-2.507-.1-2.459-1.1-4.495-.24-5,.695-.411,1.533.829,2.608.5,1.613-.5,2.5-4.139,1.988-7.2Z" transform="translate(-223.178 -690.865)" fill="#9fbc50"/><path d="M120.463,912.662c-6.958-3.552-8.121-2.9-12.428-7.376-1.387-1.444-2.209-3.872-11.169-7.482-2.067-.832-.642-2.216-.935-2.524-.483-.507-2.56,1.32-3.514,3.557a14.91,14.91,0,0,0,.18,12.856c5.826,3.355,9.69,1.456,9.962,2.18.1.26-4.48,1.459-8.09,1.228.733,1.19,1.454,2.283,2.012,3.3,1.608,2.93,1.413,8.292,3.185,13.635,7.263-3.5,13.077-2.617,13.074-2.507,0,.019-.591.031-1.089.127a18.063,18.063,0,0,0-10.561,5.742,18.692,18.692,0,0,0,7.263,7.47,11.109,11.109,0,0,0,8.121,1.658c3.987-.81,2.817-5.492,5.795-5.28C135.91,940.209,132.55,918.831,120.463,912.662Z" transform="translate(-69.168 -810.486)" fill="#7ca417"/><path d="M313.3,906.675a196.917,196.917,0,0,0,10.5-35.222,120.181,120.181,0,0,0,2.079-18.23c.1-3.057.065-6.117-.132-9.167a80.842,80.842,0,0,0-1.11-9.094c-.139-.752-.284-1.5-.445-2.252s-.317-1.521-.461-2.288c-.288-1.536-.534-3.081-.714-4.634a59.49,59.49,0,0,1-.38-9.366,54.379,54.379,0,0,1,1.17-9.289l.26-1.142.286-1.134q.3-1.125.615-2.247c.433-1.495.916-2.978,1.464-4.434a48.307,48.307,0,0,1,4.074-8.393,38.743,38.743,0,0,1,5.775-7.306,34.506,34.506,0,0,1,3.528-3.04l.945-.68c.315-.226.644-.433.964-.651.654-.416,1.312-.824,1.992-1.2a37.859,37.859,0,0,1,8.571-3.514,37.7,37.7,0,0,0-8.462,3.7c-.666.389-1.31.81-1.949,1.238-.312.224-.634.437-.942.668l-.921.695a34.415,34.415,0,0,0-3.42,3.088,38.3,38.3,0,0,0-5.528,7.335,47.656,47.656,0,0,0-3.819,8.354c-.5,1.447-.947,2.918-1.341,4.4q-.292,1.114-.558,2.238l-.255,1.118-.228,1.125a53.459,53.459,0,0,0-.933,9.111,58.37,58.37,0,0,0,.586,9.135c.214,1.512.488,3.014.805,4.511.159.747.332,1.492.507,2.245s.346,1.521.507,2.286a82.114,82.114,0,0,1,1.356,9.275c.274,3.112.382,6.239.356,9.364a122.5,122.5,0,0,1-1.682,18.633,199.98,199.98,0,0,1-9.813,36.008l-3.252-1.238Z" transform="translate(-237.995 -717.956)" fill="#7ca417"/><path d="M71.266,852.938a368.308,368.308,0,0,0-4.41-43.756,362.583,362.583,0,0,0-9.426-43.009q-1.525-5.292-3.273-10.515t-3.771-10.342q-2.022-5.119-4.415-10.075c-.81-1.644-1.642-3.278-2.526-4.881s-1.817-3.182-2.8-4.725a51.31,51.31,0,0,0-6.766-8.6c-.332-.312-.649-.642-.993-.942l-1.026-.908-1.065-.858c-.358-.281-.735-.536-1.1-.805-.377-.252-.762-.5-1.149-.736-.4-.221-.786-.459-1.2-.656-.808-.421-1.654-.767-2.5-1.156a9.623,9.623,0,0,1-2.382-1.485,11.1,11.1,0,0,1-1.843-2.1c-.269-.382-.526-.759-.784-1.139s-.536-.74-.827-1.094a14.85,14.85,0,0,0-1.9-1.964,11.938,11.938,0,0,0-2.276-1.514,21.973,21.973,0,0,0-2.54-1.055,13.265,13.265,0,0,1-2.521-1.132,6.793,6.793,0,0,1-1.094-.848,7.786,7.786,0,0,1-.889-1.057,7.748,7.748,0,0,0,.906,1.036,6.528,6.528,0,0,0,1.1.82,13.226,13.226,0,0,0,2.531,1.077,21.476,21.476,0,0,1,2.576,1.012,12.251,12.251,0,0,1,2.343,1.493,15.044,15.044,0,0,1,1.973,1.959c.3.353.582.721.86,1.094s.536.757.805,1.122a10.658,10.658,0,0,0,1.824,2,9.181,9.181,0,0,0,2.314,1.38c.834.365,1.7.7,2.536,1.115.423.195.827.428,1.238.646.4.236.8.478,1.192.731s.771.521,1.144.8l1.1.853,1.06.9c.356.3.685.627,1.029.94a51.887,51.887,0,0,1,7.04,8.592c1.026,1.543,1.995,3.12,2.925,4.72s1.8,3.235,2.649,4.877q2.516,4.946,4.648,10.068,2.149,5.112,4,10.337t3.5,10.515a364.616,364.616,0,0,1,10.332,43.074,371.428,371.428,0,0,1,5.312,44.03l-3.475.161Z" transform="translate(-5.918 -660.366)" fill="#7ca417"/><path d="M272.323,793.414a368.648,368.648,0,0,1-6.434-43.5A362.529,362.529,0,0,1,264.5,705.9q.184-5.5.6-11c.276-3.66.644-7.314,1.125-10.95s1.072-7.258,1.815-10.849c.382-1.793.788-3.581,1.255-5.352s.983-3.528,1.56-5.266a51.161,51.161,0,0,1,4.456-10c.245-.385.471-.781.731-1.156l.772-1.132.822-1.094c.279-.36.582-.7.872-1.05s.615-.668.932-1,.649-.637,1-.928c.68-.606,1.416-1.149,2.139-1.733a9.661,9.661,0,0,0,1.947-2.024,11.069,11.069,0,0,0,1.271-2.49c.168-.437.324-.865.481-1.3s.339-.848.534-1.262a14.668,14.668,0,0,1,1.365-2.37,12.13,12.13,0,0,1,1.836-2.026,21.781,21.781,0,0,1,2.206-1.644,13.2,13.2,0,0,0,2.168-1.714,6.647,6.647,0,0,0,.851-1.089,7.7,7.7,0,0,0,.6-1.243,8.079,8.079,0,0,1-.625,1.228,6.712,6.712,0,0,1-.868,1.065,13.21,13.21,0,0,1-2.19,1.663,21.954,21.954,0,0,0-2.252,1.61A12.133,12.133,0,0,0,288,634.835a15.251,15.251,0,0,0-1.435,2.382c-.207.416-.389.841-.567,1.269s-.334.865-.5,1.286a10.614,10.614,0,0,1-1.279,2.389,9.255,9.255,0,0,1-1.908,1.906c-.721.558-1.478,1.1-2.187,1.7-.363.291-.7.618-1.043.93s-.658.661-.976,1-.62.695-.913,1.055l-.86,1.1-.808,1.135c-.272.377-.512.776-.767,1.163a52.028,52.028,0,0,0-4.723,10.053c-.618,1.747-1.17,3.514-1.68,5.292s-.952,3.576-1.372,5.376q-1.229,5.411-2.043,10.9c-.555,3.653-1,7.323-1.348,11s-.625,7.362-.822,11.051a364.609,364.609,0,0,0,.524,44.292,371.481,371.481,0,0,0,5.624,43.992l3.41-.695Z" transform="translate(-199.277 -606.939)" fill="#7ca417"/><path d="M243.16,751.41c.663-7.8.985-15.668,1.144-23.536s.161-15.754.077-23.637c-.175-15.766-.692-31.537-1.413-47.3s-1.654-31.521-2.879-47.253c-.312-3.932-.637-7.864-1.012-11.791l-.291-2.944-.32-2.939a23.984,23.984,0,0,0-.5-2.882,13.942,13.942,0,0,0-1.017-2.728c-.211-.447-.411-.906-.591-1.372s-.327-.945-.459-1.428a28.423,28.423,0,0,1-.6-2.918c-.308-1.952-.567-3.906-.966-5.835a25.515,25.515,0,0,0-1.776-5.614,19.361,19.361,0,0,0-3.266-4.9,19.414,19.414,0,0,1,3.365,4.853,25.7,25.7,0,0,1,1.891,5.614c.437,1.93.733,3.886,1.077,5.826a27.972,27.972,0,0,0,.647,2.867q.205.7.471,1.382c.183.452.385.892.6,1.334a14.244,14.244,0,0,1,1.1,2.79,24.255,24.255,0,0,1,.567,2.937l.375,2.942.346,2.942c.447,3.925.846,7.852,1.231,11.784,1.514,15.723,2.725,31.47,3.749,47.234s1.822,31.542,2.286,47.344c.228,7.9.37,15.807.358,23.721s-.192,15.839-.721,23.779l-3.468-.276Z" transform="translate(-174.183 -559.141)" fill="#346e00"/><path d="M149.755,1021.871a223.277,223.277,0,0,0-2.543-27.606,173.667,173.667,0,0,0-6.4-26.971,132.434,132.434,0,0,0-4.987-12.945,100.9,100.9,0,0,0-6.494-12.257,68.013,68.013,0,0,0-8.436-11c-.8-.834-1.646-1.637-2.425-2.5s-1.536-1.75-2.24-2.675a26.011,26.011,0,0,1-1.942-2.9,13.114,13.114,0,0,1-.764-1.567,4.584,4.584,0,0,1-.377-1.692,4.516,4.516,0,0,0,.409,1.678,12.809,12.809,0,0,0,.791,1.545,25.907,25.907,0,0,0,1.99,2.846c.721.908,1.485,1.779,2.281,2.62s1.649,1.625,2.471,2.449a68.513,68.513,0,0,1,8.7,10.9,101.825,101.825,0,0,1,6.778,12.209,132.769,132.769,0,0,1,5.275,12.938,175.068,175.068,0,0,1,6.977,27.05,225.025,225.025,0,0,1,3.108,27.786l-2.173.089Z" transform="translate(-85.955 -829.147)" fill="#346e00"/><g transform="translate(44.722 187.679)"><path d="M233.783,1323.63H188.464a2.384,2.384,0,0,0-2.384,2.384v5.862a2.384,2.384,0,0,0,2.384,2.384h.995L192,1371.438a3.576,3.576,0,0,0,3.576,3.576h31.088a3.576,3.576,0,0,0,3.576-3.576l2.543-37.178h.995a2.384,2.384,0,0,0,2.384-2.384v-5.862a2.384,2.384,0,0,0-2.384-2.384Z" transform="translate(-186.08 -1323.63)" fill="#bc7e55"/><path d="M243.379,1374.878l.493-7.188H200.68Z" transform="translate(-197.171 -1357.1)" fill="#1e1735"/></g></g><g transform="translate(160.116 209.999)"><path d="M667.914,1366.758h4.369a1.709,1.709,0,0,0,1.7-1.7L685.2,1323a1.709,1.709,0,0,0-1.7-1.7H673.444a1.709,1.709,0,0,0-1.7,1.7l-5.53,42.05A1.709,1.709,0,0,0,667.914,1366.758Z" transform="translate(-666.21 -1321.3)" fill="#bc7e55"/><path d="M1668.025,1366.758h-4.37a1.709,1.709,0,0,1-1.7-1.7L1650.74,1323a1.709,1.709,0,0,1,1.7-1.7H1662.5a1.709,1.709,0,0,1,1.7,1.7l5.53,42.05A1.709,1.709,0,0,1,1668.025,1366.758Z" transform="translate(-1414.118 -1321.3)" fill="#bc7e55"/></g><g transform="translate(187.572 224.667)"><path d="M781.44,1408.746h2.538a.994.994,0,0,0,.99-.99l6.516-24.435a.993.993,0,0,0-.99-.99h-5.84a.994.994,0,0,0-.99.99l-3.213,24.435A.994.994,0,0,0,781.44,1408.746Z" transform="translate(-780.45 -1382.33)" fill="#bc7e55"/><path d="M1579.644,1408.746h-2.538a.994.994,0,0,1-.99-.99l-6.516-24.435a.994.994,0,0,1,.99-.99h5.84a.994.994,0,0,1,.99.99l3.213,24.435A.994.994,0,0,1,1579.644,1408.746Z" transform="translate(-1379.936 -1382.33)" fill="#bc7e55"/></g><path d="M491.07,809.866c.4-1.158.781-22.255.988-26.509,0,0-.058-6.583,6.573-7.27,90.808-9.426,182.721-10.678,264.97-2.12,15.11,1.572,17.369,6.186,18.42,10.234,1.788,6.9.113,21.958,1.613,26.365,1.269,3.73,10.248-1.464,24.39,7.97,22.222,14.819-9.164,89.779-25.858,102.762-5.251,4.083-13.822,3.458-15.435,3.54-66.432,3.338-184.079,3.074-261.406-.892-4.055-.207-10.181,1.214-16.324-9.2-21.768-36.895-37.193-80.978-24.2-94.961,6.744-7.258,13.634-7.871,13.634-7.871,8.462-1.516,11.505,1.209,12.632-2.05Z" transform="translate(-349.475 -691.15)" fill="#607163"/><path d="M808.814,985.165a21.185,21.185,0,0,0-9.518-.856,26.512,26.512,0,0,0-13.187,6.393c-18.5,16.343-8.006,62.875-19.528,66.911-26.584,9.313-256.909,7.489-262.9-2.336-13.308-21.823-3.8-64.536-18.42-71.847-7.914-3.958-15.17-2.37-21.1.692-11.829,14.74,3.437,57.953,24.834,94.22,6.143,10.412,12.269,8.989,16.324,9.2,77.327,3.966,194.973,4.228,261.406.891,1.613-.082,10.183.543,15.435-3.54,15.37-11.952,43.189-76.433,30.17-98.155A27.57,27.57,0,0,0,808.814,985.165Z" transform="translate(-349.473 -852.846)" fill="#9eada1"/><path d="M900.719,1128.405c-3.771-6.285-13-8.131-18.287-8.647-50.8-4.97-179.673-4.97-230.474,0-5.287.517-14.514,2.363-18.287,8.647-3.456,5.756,2.279,23.058,3.922,25.887a4.637,4.637,0,0,0,2.992,2.394c23.327,4.448,229.892,4.448,253.22,0a4.653,4.653,0,0,0,2.992-2.394C898.44,1151.463,904.172,1134.161,900.719,1128.405Z" transform="translate(-480.548 -955.365)" fill="#9eada1"/><g transform="translate(130.189 41.935)"><path d="M600.385,833.033a43.451,43.451,0,0,0-7.076.925c-4.343.94-6.487,1.127-13.474.759-10.407-.548-9.964.49-16-.421-4.7-.711-7.458-.6-9.263-1.685-2.105-1.264-11.789-3.79-12.209-2.947-1.735,3.473.421,13.894.421,13.894,5.924,17.579-2.057-2.625,9.683,31.578a61.764,61.764,0,0,1,2.105,7.157c1.7,7.587.382,9.037,1.685,13.894,1.935,7.22,10.1,14.315,12.209,13.894a24.13,24.13,0,0,0,2.947-.841c3.708-1.242,4.723-2.266,7.157-2.947a15.707,15.707,0,0,1,5.473-.42c6.715.271,15.951-2.218,31.158-6.316,10.7-2.884,14.86-4.511,14.735-5.9-.043-.474-1.11-.353-1.264-1.264-.841-5.052-5.874-28.492-16-45.052-7.189-11.755-12.294-14.315-12.294-14.315Z" transform="translate(-541.689 -779.633)" fill="#607163"/><path d="M1237.341,882.26c.156.476.288.947.423,1.416s.291.93.423,1.394.291.918.438,1.372l.219.68.238.675c.622,1.8,1.293,3.55,2.031,5.268.365.86.752,1.706,1.142,2.55s.8,1.675,1.228,2.495c.858,1.637,1.74,3.254,2.733,4.771a64.1,64.1,0,0,0,6.807,8.712c1.262,1.389,2.583,2.752,3.925,4.129l2.021,2.089c.673.7,1.351,1.418,2,2.173-.925-.36-1.822-.767-2.706-1.2s-1.755-.889-2.61-1.38a41.32,41.32,0,0,1-4.932-3.312l-.587-.464-.577-.481-.57-.49-.555-.507c-.37-.339-.743-.675-1.089-1.041s-.714-.711-1.048-1.089a33.157,33.157,0,0,1-3.716-4.8c-.281-.42-.538-.865-.8-1.3-.243-.445-.5-.884-.726-1.336s-.461-.9-.668-1.358-.418-.916-.611-1.382c-.385-.928-.745-1.867-1.052-2.822-.161-.476-.3-.956-.445-1.437s-.253-.971-.38-1.454a33.461,33.461,0,0,1-.887-5.924c-.026-.5-.053-.995-.043-1.495s-.007-.993.036-1.49.058-.99.12-1.483.135-.983.226-1.471Z" transform="translate(-1069.86 -819.715)"/><path d="M1441.128,1084.849a121.581,121.581,0,0,0,20.566,9.861c2,.745,6.4,2.92,9.486,2.067.353-.1,4.225-1.973,5.917.563,2.108,3.16-4.4,6.484-6.951,7.044-5.619,1.233-7.419.6-10.988.281-9.731-.88-14.7-1.728-17.28-.846a16.046,16.046,0,0,1-5.823,1.6c-1.543.036-5.446.469-7.232-2.629-1.2-2.084-.478-8.772-.281-9.674,1.88-8.64,8.645-11.128,12.584-8.265Z" transform="translate(-1215.095 -972.751)" fill="#ec7d40"/><path d="M1240.527,805.988c2.259-6.391,6.11-8.232,8.953-7.749,3.367.572,5.41,3.586,6.751,5.5,5.4,7.717,16.908,30.554,23.068,39.908,14.389,21.852,18.261,22.989,21.39,26.526,0,0-4.42,15.3-19.974.721-2.36-2.211-9.294-7.874-14.238-11.894-4.835-3.932-14.495-9.1-20.881-19.316C1241.668,833.408,1235.775,819.425,1240.527,805.988Z" transform="translate(-1071.224 -755.832)" fill="#ec7d40"/><path d="M994.793,850.16c7.333-4.418,17.124-34.066,40.625-51.01a10.9,10.9,0,0,1,9.018-1.73c6.057,1.5,7.063,9.472,7.287,11.2.928,7.174-2.8,12.921-5.557,19.311-6.551,15.185-9.472,17.6-16.761,33.794-10.428,23.181-23.729,27.644-38.257,27.053-5.016-.2-12.005-.957-17.033-6.285-5.247-5.559-7.482-16.492-3.644-22.5,4.634-7.256,12.587-2.769,24.32-9.837Z" transform="translate(-865.952 -755.019)" fill="#ea9a26"/><path d="M1261.722,855.582c-5.035-3.574-11.928-8.467-16.872-16.372a48.164,48.164,0,0,1-5.812-14.223,34.781,34.781,0,0,1,.726-19.633,14.264,14.264,0,0,1,3.836-6.146,6.761,6.761,0,0,1,4.415-1.8,5.4,5.4,0,0,1,.906.077c3.37.575,5.424,3.509,6.782,5.453l.087.125c2.8,4,7.124,11.846,11.7,20.157,3.4,6.179,6.924,12.57,9.7,17.12l.058.1-.06.1a48.346,48.346,0,0,1-5.766,7.487,37.89,37.89,0,0,1-9.518,7.576l-.1.053-.091-.065Z" transform="translate(-1070.632 -755.257)" fill="#ea9a26"/><path d="M1237.721,881.88c.156.476.288.947.423,1.416s.291.93.423,1.394.291.918.437,1.372l.219.68.238.675c.623,1.8,1.293,3.55,2.031,5.268.365.86.752,1.706,1.142,2.55s.8,1.675,1.228,2.495c.858,1.637,1.74,3.254,2.733,4.771a64.089,64.089,0,0,0,6.806,8.712c1.262,1.389,2.583,2.752,3.925,4.129l2.021,2.089c.673.7,1.351,1.418,2,2.173-.925-.361-1.822-.767-2.706-1.2s-1.754-.889-2.61-1.38a41.291,41.291,0,0,1-4.932-3.312l-.586-.464-.577-.481-.57-.49-.555-.507c-.37-.339-.743-.675-1.089-1.041s-.714-.711-1.048-1.089a33.006,33.006,0,0,1-3.716-4.8c-.281-.421-.538-.865-.8-1.3-.243-.445-.5-.885-.726-1.336s-.462-.9-.668-1.358-.418-.916-.61-1.382c-.385-.928-.745-1.867-1.053-2.822-.161-.476-.3-.957-.445-1.437s-.252-.971-.38-1.454a33.46,33.46,0,0,1-.887-5.924c-.026-.5-.053-1-.043-1.495s-.007-.993.036-1.49.058-.99.12-1.483.135-.983.226-1.471Z" transform="translate(-1070.149 -819.426)"/><path d="M1418.758,1084.849a121.578,121.578,0,0,0,20.566,9.861c2,.745,6.4,2.92,9.486,2.067.353-.1,4.225-1.973,5.917.563,2.108,3.16-4.4,6.484-6.951,7.044-5.619,1.233-7.419.6-10.988.281-9.731-.88-14.7-1.728-17.28-.846a16.046,16.046,0,0,1-5.823,1.6c-1.543.036-5.446.469-7.232-2.629-1.2-2.084-.478-8.772-.281-9.674,1.877-8.64,8.645-11.128,12.584-8.265Z" transform="translate(-1198.102 -972.751)" fill="#f79556"/><path d="M1218.167,805.988c2.259-6.391,6.109-8.232,8.953-7.749,3.367.572,5.41,3.586,6.751,5.5,5.4,7.717,16.908,30.554,23.068,39.908,14.389,21.852,18.261,22.989,21.39,26.526,0,0-4.42,15.3-19.975.721-2.36-2.211-9.294-7.874-14.238-11.894-4.836-3.932-14.495-9.1-20.881-19.316C1219.308,833.408,1213.415,819.425,1218.167,805.988Z" transform="translate(-1054.238 -755.832)" fill="#f79556"/><path d="M972.433,850.16c7.333-4.418,17.124-34.066,40.625-51.01a10.9,10.9,0,0,1,9.017-1.73c6.057,1.5,7.064,9.472,7.287,11.2.928,7.174-2.8,12.921-5.557,19.311-6.552,15.185-9.472,17.6-16.761,33.794-10.428,23.181-23.729,27.644-38.257,27.053-5.016-.2-12.005-.957-17.033-6.285-5.247-5.559-7.482-16.492-3.643-22.5,4.634-7.256,12.587-2.769,24.32-9.837Z" transform="translate(-848.966 -755.019)" fill="#fccc44"/><path d="M606.79,655.551c-11.974,15.42-12.065,43.449-1.995,54.971,8.366,9.57,12.894,14.769,18.6,18.141,8.467,5.006,28.846,10.068,31.386-7.8.461-3.254-1.543-11.52-12.608-16.329-19.153-8.321-25.171-22.57-24.673-30.477.567-9.008,8.193-8.989,6.258-13.7-1.822-4.437-13.223-9.623-16.963-4.807Z" transform="translate(-584.092 -646.027)" fill="#282444"/><path d="M678.02,769.06c.058,2.54-2.322,2.629-3.187,6.285-1.11,4.687,1.346,10.7,5.374,12.844,1.519.81-6.122,8.575-14.939,6.65-3.641-.8-10.763-3.29-10.474-7.833.683-10.794,6.33-11.7,3.461-26.507-.517-2.661,5.117-2.572,6.467-2.641,6.22-.32,13.2,6.888,13.3,11.2Z" transform="translate(-627.603 -725.203)" fill="#ec7d40"/><path d="M642.28,652.821c-3.3-2.283-4.8-2.951-6.407-5.9a13.871,13.871,0,0,1-1.8-8.306,13.567,13.567,0,0,1,4.381-8.333,14.146,14.146,0,0,1,5.4-2.978c2.872-.844,5.175-.522,8.148-.072a30.086,30.086,0,0,1,10.395,3.338c3.161,1.721,6.172,3.36,8.164,6.7,3.127,5.239,1.113,13.214.913,14.072a2.446,2.446,0,0,0-.192,1.079,20.14,20.14,0,0,0,2.052,6.766c.053.1,1.259,1.214.425,2.326a2.759,2.759,0,0,1-1.262.8c-.745.32-1.048.305-1.245.618a1.262,1.262,0,0,0-.123.509,50.658,50.658,0,0,1-1.565,7.436,18.9,18.9,0,0,1-.971,3.6,2.09,2.09,0,0,1-1.452.872c-3.043.834-6.874-.875-6.874-.875a37.079,37.079,0,0,1-8.784-4.927,14.248,14.248,0,0,1-3.261-3.319c-.529-.6-1.646-2.485-2.168-6.237-.716-5.141-1.024-5.263-3.776-7.162Z" transform="translate(-611.81 -625.64)" fill="#f79556"/><path d="M647.051,866.543a13.611,13.611,0,0,1,1.365-8.652,12.3,12.3,0,0,1,5.191-4.92c1.192-.562,6.153-2.632,14.848,2.824,9.292,5.831,22.839,6.982,28.692,7.652a14.55,14.55,0,0,1,5.1,1.276c5.557,2.824,4.708,10.885,5.374,13.3,2.134,7.744,17.237,13.7,23.409,13.481,13.983-.5,12.844,1.456,12.844,1.456s-13.709,7.515-13.207,30.97a8.539,8.539,0,0,1-.183,2.915c-1.322,4.417-13.808,1.49-15.485,1.185-14.512-2.651-24.546-10.438-33.429-17.489-11.467-9.1-33.619-36.6-34.522-43.994Z" transform="translate(-621.594 -796.816)" fill="#fff"/><g transform="translate(50.053 22.898)"><path d="M757.545,719.473a3.839,3.839,0,0,1-1.291-.082,4.105,4.105,0,0,1-1.139-.519c-.171-.1-.341-.2-.514-.288a3.35,3.35,0,0,0-.481-.221,4.107,4.107,0,0,0-2.108-.161,3.6,3.6,0,0,0-1.038.37,4.085,4.085,0,0,0-.918.683l-.106-.087a4.717,4.717,0,0,1,.361-.488,4.421,4.421,0,0,1,.44-.435,3.958,3.958,0,0,1,1.084-.642,4.544,4.544,0,0,1,2.553-.212c.216.041.449.123.63.175s.385.115.577.166a10.123,10.123,0,0,1,1.069.31c.329.123.661.26,1.017.4s.293.978-.132,1.029Z" transform="translate(-749.95 -717.297)" fill="#1e1735"/><path d="M761.54,734.218c.421-.178.812-.3,1.192-.428s.745-.248,1.106-.38.714-.271,1.077-.428.731-.324,1.156-.493a2.687,2.687,0,0,1-.767,1.094,3.571,3.571,0,0,1-1.154.68,3.841,3.841,0,0,1-1.312.228,3.053,3.053,0,0,1-1.3-.276Z" transform="translate(-758.754 -728.838)" fill="#1e1735"/><path d="M772.781,736.167a.833.833,0,1,1-.87-.94A.913.913,0,0,1,772.781,736.167Z" transform="translate(-766.05 -730.917)" fill="#1e1735"/></g><path d="M656.886,884a25.034,25.034,0,0,1-2.187-9.474c-.091-2.963-.211-6.931,2.55-9.654a9.894,9.894,0,0,1,6.1-2.55,11,11,0,0,1,6.559,1.365c2.661,1.6,3.718,4.069,5.191,7.652,5.129,12.471,4.3,11.447,5.739,14.3,2.545,5.049,4.283,6.559,7.2,13.207a41.894,41.894,0,0,1,1.73,4.28,35.3,35.3,0,0,1,1.639,8.926c.666,9.428.457,13.255-1,13.663C680.458,928.5,660,890.781,656.883,884Z" transform="translate(-627.511 -804.526)" fill="#f79556"/><path d="M934.274,836.256l.384-1.168a1.9,1.9,0,0,1,1.459-1.274l37.426-6.931a.286.286,0,0,0,.226-.216l9.289-41.634a.828.828,0,0,1,.791-.649l1.658-.034a.285.285,0,0,1,.284.344l-9.57,43.547a.3.3,0,0,1-.079.144l-.971.935a.284.284,0,0,1-.147.074l-40.43,7.234a.283.283,0,0,1-.32-.368Z" transform="translate(-839.909 -745.336)" fill="#e30613"/><path d="M754.145,640.416c.6-.829,2.255-.459,3.4-.027,3.254,1.226,4.37,5.054,5.093,7.544.161.557.661,2.266.238,2.49-.293.154-.267-.663-.812-1.187-2.3-2.211-4.453-1.509-6.206-3.151-1.728-1.62-2.5-4.6-1.716-5.667Z" transform="translate(-702.851 -635.619)" fill="#282444"/><path d="M663.523,631.511a9.551,9.551,0,0,0-1.882-3.557c-1.829-2.259-4.1-3.151-6.278-3.975a28.031,28.031,0,0,0-8.16-1.673c-4.372-.36-6.946-.574-10.044.627a17.216,17.216,0,0,0-6.9,5.23,21.551,21.551,0,0,0-4.184,7.532,23.092,23.092,0,0,0-.209,12.553,13.3,13.3,0,0,0,3.757,7.184,22.274,22.274,0,0,0-1.079,5.939c-.622,7.691,5.912,12.839,7.732,7.741,3.824-10.709,11.358-19.417,18.045-23.892,5.1-3.413,8.388-7.013,8.787-8.251a7.884,7.884,0,0,0,.418-5.461Z" transform="translate(-605.041 -622.023)" fill="#282444"/><path d="M1239.362,855.582c-5.035-3.574-11.928-8.467-16.872-16.372a48.168,48.168,0,0,1-5.811-14.223,34.781,34.781,0,0,1,.726-19.633,14.264,14.264,0,0,1,3.836-6.146,6.761,6.761,0,0,1,4.415-1.8,5.4,5.4,0,0,1,.906.077c3.37.575,5.424,3.509,6.782,5.453l.086.125c2.8,4,7.124,11.846,11.7,20.157,3.4,6.179,6.924,12.57,9.7,17.12l.058.1-.06.1a48.31,48.31,0,0,1-5.766,7.487,37.886,37.886,0,0,1-9.517,7.576l-.1.053-.091-.065Z" transform="translate(-1053.646 -755.257)" fill="#fccc44"/><path d="M1215.741,881.835c.079.478.147.956.221,1.432.031.238.082.476.125.711l.13.709c.079.474.192.942.291,1.411.053.233.1.469.154.7l.175.7a54.316,54.316,0,0,0,1.675,5.47q.491,1.341,1.043,2.656c.375.875.757,1.742,1.175,2.6l.312.639c.1.214.216.423.322.634s.214.423.327.63l.341.622.171.313.176.308.353.615c.248.4.483.81.752,1.2a43.414,43.414,0,0,0,3.355,4.574l.223.276c.075.091.154.18.233.269l.469.536c.156.178.31.361.471.534l.483.524.483.524.5.509.5.514.51.5c1.358,1.339,2.781,2.622,4.237,3.874l.546.471.553.464c.365.315.738.62,1.105.93.74.62,1.483,1.24,2.216,1.87q-2.512-1.453-4.912-3.1a53.47,53.47,0,0,1-4.619-3.567l-.553-.481-.541-.5-.538-.5-.521-.514-.522-.517c-.089-.084-.173-.173-.255-.264l-.25-.269-.5-.538c-.084-.091-.168-.178-.25-.269l-.24-.279-.481-.558c-.159-.187-.322-.37-.471-.565l-.916-1.156-.863-1.2-.108-.149-.1-.154-.2-.308-.406-.615a38.4,38.4,0,0,1-2.783-5.191q-.6-1.341-1.108-2.721c-.089-.228-.168-.459-.248-.69l-.238-.694c-.082-.231-.151-.466-.223-.7l-.214-.7a39.571,39.571,0,0,1-1.24-5.72l-.1-.723c-.031-.243-.05-.485-.072-.728-.041-.486-.1-.966-.113-1.454l-.031-.728c-.007-.243-.024-.483-.017-.728.007-.486.01-.971.024-1.454Z" transform="translate(-1053.726 -819.38)" fill="#ea9a26"/><path d="M813.314,951.3a13.079,13.079,0,0,0-4.28,2.1,19.788,19.788,0,0,0-4.009,3.644c-.743.872-6.9,8.112-14.94,11.476-3.271,1.37-4.816,1.245-7.561,3.278a16.152,16.152,0,0,0-4.646,5.191c-.478.865-3.629,6.763-1.094,12.3.113.247,2.221,4.72,5.009,4.646.959-.027,1.492-.577,3.552-2.187,3.18-2.485,1.855-1.137,5.1-3.735,6.751-5.405,9.669-8.107,12.387-11.3,4.831-5.665,5.372-8.554,9.746-12.844,1.411-1.384,2.632-2.954,4.009-4.372,1.413-1.459,2.567-2.564,3.187-4.463.329-1.009.673-2.062.183-2.915-1.014-1.757-4.795-1.3-6.65-.82Z" transform="translate(-719.541 -871.83)" fill="#f79556"/><path d="M916.478,942.208c.387-1.182,2.4-1.831,5.465-2.824.272-.089.635-.209,1.086-.324,1.387-.353,2.766-.454,6.746-1.041,3.752-.553,5.626-.829,7.47-1.185a53.22,53.22,0,0,1,8.015-.82,5.833,5.833,0,0,1,1.185.091c1.231.224,6.979,3.485,7.561,4.737a.913.913,0,0,1,.091.637c-.13.485-.418.663-1,.728a2.456,2.456,0,0,1-.911-.091,1.608,1.608,0,0,1-1,2,2.648,2.648,0,0,1-1.456,0,1.56,1.56,0,0,1-.365.82c-.4.43-1.913,1.185-4.1-.546a5.6,5.6,0,0,0-3.1-1,8.9,8.9,0,0,0-4.189.911,16.47,16.47,0,0,0-2.367,1.094,23.206,23.206,0,0,1-7.561,2.187c-3.18.5-4.771.747-6.468.183-2.98-.995-5.65-3.881-5.1-5.557Z" transform="translate(-826.348 -860.548)" fill="#f79556"/><path d="M1000.46,940.691a34.642,34.642,0,0,1,4.1-.776c.69-.091,1.382-.168,2.081-.219.176-.012.349-.024.526-.031l.267-.01h.269a2.788,2.788,0,0,1,.281.007.382.382,0,0,1,.072,0l.084.012a1.387,1.387,0,0,1,.163.029c.091.026.188.053.276.082l.26.1a15.556,15.556,0,0,1,1.9.952c.608.353,1.2.728,1.774,1.125s1.132.82,1.678,1.255,1.067.9,1.565,1.389c-.6-.363-1.178-.738-1.771-1.1s-1.182-.714-1.778-1.062-1.195-.683-1.8-1c-.151-.079-.3-.161-.454-.238s-.305-.156-.457-.228c-.305-.151-.613-.291-.92-.413l-.228-.087-.221-.07a.736.736,0,0,0-.091-.014l-.043-.007a.247.247,0,0,1-.058,0c-.079,0-.154-.01-.238-.012-.329-.01-.675,0-1.016.014-.685.024-1.375.063-2.067.1-1.382.072-2.764.151-4.158.207Z" transform="translate(-890.199 -863.314)" fill="#ec7d40"/><path d="M1009.186,954.774c-.538-.341-1.067-.687-1.606-1.019s-1.074-.661-1.613-.978-1.086-.618-1.641-.894c-.276-.137-.555-.269-.839-.385-.034-.014-.072-.034-.1-.043l-.091-.029c-.031-.01-.06-.022-.091-.029l-.1-.022a3.868,3.868,0,0,0-.43-.07c-.149-.017-.3-.031-.452-.043s-.305-.019-.461-.022-.31-.012-.464-.012h-.466c-.623,0-1.25.026-1.877.051-1.257.053-2.514.147-3.788.211a24.13,24.13,0,0,1,3.737-.783c.632-.082,1.269-.144,1.911-.173a12.285,12.285,0,0,1,1.947.046,4.93,4.93,0,0,1,.5.086l.127.029c.043.012.089.029.135.043l.135.046a1.054,1.054,0,0,1,.115.05c.149.07.3.135.442.209s.291.144.43.226a17.223,17.223,0,0,1,1.632,1.024,20.319,20.319,0,0,1,2.911,2.475Z" transform="translate(-886.173 -871.567)" fill="#ec7d40"/></g></g></svg>